<?xml version="1.0" standalone="no"?>
<!DOCTYPE svg PUBLIC "-//W3C//DTD SVG 20010904//EN"
 "http://www.w3.org/TR/2001/REC-SVG-20010904/DTD/svg10.dtd">
<svg version="1.0" xmlns="http://www.w3.org/2000/svg"
 width="150.000000pt" height="150.000000pt" viewBox="0 0 150.000000 150.000000"
 preserveAspectRatio="xMidYMid meet">
<metadata>
Created by potrace 1.14, written by Peter Selinger 2001-2017
</metadata>
<g transform="translate(0.000000,150.000000) scale(0.100000,-0.100000)"
fill="#000000" stroke="none">
<path d="M54 1489 c-11 -6 -28 -23 -37 -39 -15 -25 -17 -90 -17 -699 0 -498 3
-677 12 -696 25 -56 10 -55 738 -55 728 0 713 -1 738 55 16 35 17 1352 1 1388
-6 13 -23 31 -39 40 -25 15 -90 17 -702 16 -431 0 -680 -4 -694 -10z m651
-388 c22 -10 55 -30 73 -45 l32 -28 33 28 c51 43 106 64 171 64 80 0 130 -17
179 -60 l41 -37 -283 -291 c-197 -202 -298 -298 -333 -317 -97 -53 -241 -42
-318 24 l-35 30 175 175 175 176 -110 111 -110 110 30 25 c67 54 202 71 280
35z m396 -476 c66 -35 88 -123 46 -186 -27 -40 -60 -59 -105 -59 -71 0 -122
56 -122 133 0 96 97 155 181 112z"/>
</g>
</svg>
