<svg width="573" height="341" viewBox="0 0 573 341" fill="none" xmlns="http://www.w3.org/2000/svg">
<g clip-path="url(#clip0_111_650)">
<g clip-path="url(#clip1_111_650)">
<circle opacity="0.2" cx="260.325" cy="2.716" r="50" transform="rotate(32.4573 260.325 2.716)" fill="white"/>
<g clip-path="url(#clip2_111_650)">
<path d="M249.312 20.0315C248.691 19.6504 248.182 19.1134 247.833 18.4739L247.496 17.8397C244.866 12.9031 243.594 7.35699 243.809 1.7678C244.024 -3.82138 245.718 -9.25344 248.719 -13.9737L248.875 -14.2198C249.265 -14.8458 249.815 -15.357 250.468 -15.7011C251.12 -16.0451 251.853 -16.2097 252.59 -16.1781L269.3 -15.2777C270.031 -15.2464 270.74 -15.0232 271.358 -14.6307C271.975 -14.2382 272.478 -13.6901 272.816 -13.0416L280.716 1.71097C281.057 2.3651 281.219 3.0981 281.184 3.83503C281.149 4.57196 280.919 5.28642 280.517 5.90536L280.361 6.15147C277.352 10.8716 273.144 14.7081 268.167 17.2686C263.189 19.829 257.621 21.0216 252.031 20.7243L251.314 20.6877C250.601 20.6441 249.912 20.4182 249.312 20.0315ZM269.101 -11.0833L252.391 -11.9837L252.234 -11.7376C249.631 -7.63784 248.164 -2.91977 247.984 1.93335C247.804 6.78647 248.918 11.6002 251.211 15.8814L251.548 16.5157L252.265 16.5523C257.115 16.8136 261.946 15.7811 266.265 13.5605C270.585 11.34 274.236 8.01129 276.845 3.91534L277.002 3.66923L269.101 -11.0833Z" fill="white"/>
</g>
<circle opacity="0.2" cx="190.557" cy="112.409" r="50" transform="rotate(32.4573 190.557 112.409)" fill="white"/>
<g clip-path="url(#clip3_111_650)">
<path d="M173.418 126.198C172.563 125.647 171.911 124.833 171.559 123.88L169.642 118.858C169.218 117.669 169.266 116.363 169.776 115.209C170.285 114.054 171.217 113.139 172.38 112.65C173.003 112.38 173.553 111.966 173.985 111.442C174.417 110.919 174.718 110.3 174.864 109.637L174.938 109.289C175.111 108.715 175.147 108.108 175.042 107.518C174.937 106.928 174.694 106.371 174.333 105.892L174.052 105.713C173.245 104.715 172.864 103.438 172.992 102.161C173.12 100.883 173.747 99.708 174.737 98.8901L179.086 95.2364C179.555 94.7913 180.114 94.4516 180.726 94.24C181.337 94.0285 181.987 93.9501 182.631 94.01C183.232 94.0646 183.815 94.2406 184.346 94.5272C184.876 94.8138 185.343 95.2051 185.718 95.6774C186.13 96.1867 186.66 96.5878 187.261 96.8457C187.863 97.1037 188.519 97.2108 189.172 97.1578L189.512 97.1273C190.113 97.0627 190.692 96.8641 191.207 96.5459C191.721 96.2278 192.157 95.7983 192.484 95.2891L192.752 94.8672C193.431 93.7886 194.509 93.022 195.751 92.7344C196.993 92.4468 198.298 92.6615 199.383 93.3316L203.865 96.1827C204.388 96.5169 204.839 96.9511 205.193 97.4602C205.547 97.9693 205.797 98.5434 205.929 99.1494C206.202 100.429 205.956 101.764 205.246 102.863L204.933 103.355C204.615 103.834 204.415 104.381 204.348 104.952C204.281 105.522 204.349 106.101 204.547 106.64L204.651 106.904C204.857 107.451 205.193 107.94 205.629 108.329C206.065 108.718 206.588 108.996 207.155 109.139L207.876 109.326C208.489 109.48 209.065 109.756 209.569 110.138C210.073 110.519 210.495 110.998 210.81 111.546C211.125 112.095 211.326 112.701 211.402 113.328C211.478 113.956 211.426 114.593 211.25 115.2L209.821 120.513C209.492 121.741 208.699 122.794 207.609 123.45C206.52 124.106 205.219 124.314 203.979 124.032L203.549 123.931C202.924 123.771 202.27 123.768 201.643 123.92C201.017 124.073 200.437 124.377 199.956 124.806C199.506 125.203 199.148 125.693 198.906 126.242C198.663 126.791 198.542 127.386 198.551 127.986L198.583 128.945C198.629 130.21 198.19 131.445 197.355 132.397C196.52 133.349 195.353 133.945 194.092 134.064L188.826 134.541C188.192 134.596 187.552 134.52 186.948 134.319C186.344 134.118 185.787 133.795 185.313 133.37C184.838 132.946 184.455 132.429 184.188 131.851C183.92 131.273 183.774 130.646 183.758 130.009L183.737 129.576C183.725 128.96 183.556 128.358 183.247 127.825C182.939 127.292 182.5 126.846 181.973 126.528C181.469 126.225 180.901 126.046 180.314 126.003C179.728 125.96 179.14 126.056 178.598 126.283L177.825 126.606C177.239 126.864 176.607 127 175.967 127.005C175.327 127.01 174.693 126.883 174.103 126.634C173.861 126.511 173.631 126.365 173.418 126.198ZM177.622 103.244C178.39 104.229 178.915 105.381 179.157 106.606C179.398 107.832 179.348 109.097 179.011 110.299L178.877 110.51C178.589 111.8 177.999 113.004 177.155 114.021C176.31 115.038 175.236 115.84 174.021 116.36C173.831 116.412 173.668 116.532 173.563 116.698C173.458 116.864 173.418 117.063 173.451 117.256L175.408 122.525C175.432 122.595 175.472 122.659 175.523 122.713C175.575 122.767 175.637 122.809 175.706 122.836C175.775 122.864 175.849 122.876 175.923 122.873C175.998 122.869 176.07 122.85 176.136 122.816L176.91 122.493C178.08 122 179.352 121.798 180.618 121.904C181.883 122.01 183.104 122.422 184.175 123.103C185.247 123.785 186.137 124.716 186.77 125.817C187.403 126.918 187.759 128.156 187.809 129.425L187.818 129.876C187.826 130.031 187.891 130.178 188.001 130.288C188.054 130.334 188.116 130.369 188.183 130.39C188.25 130.411 188.32 130.419 188.39 130.412L193.756 129.973C193.947 129.953 194.122 129.861 194.247 129.715C194.372 129.57 194.436 129.382 194.427 129.19L194.395 128.231C194.351 126.984 194.589 125.743 195.089 124.6C195.59 123.457 196.341 122.441 197.287 121.627C198.269 120.764 199.445 120.15 200.714 119.836C201.984 119.522 203.31 119.517 204.582 119.823L205.012 119.923C205.196 119.958 205.386 119.918 205.54 119.813C205.695 119.708 205.802 119.546 205.838 119.362L207.251 114.113C207.266 114.015 207.262 113.916 207.238 113.82C207.214 113.724 207.171 113.634 207.111 113.555C207.076 113.496 207.028 113.446 206.97 113.409C206.912 113.372 206.846 113.35 206.777 113.343L206.057 113.156C204.833 112.847 203.704 112.245 202.764 111.402C201.825 110.56 201.104 109.502 200.664 108.319L200.695 108.116C200.273 106.981 200.119 105.764 200.247 104.56C200.374 103.356 200.779 102.198 201.43 101.177L201.776 100.632C201.887 100.464 201.928 100.26 201.891 100.063C201.848 99.907 201.748 99.7731 201.611 99.6873L197.146 96.8474C197.072 96.8064 196.99 96.7804 196.906 96.771C196.821 96.7617 196.736 96.7691 196.654 96.7928C196.572 96.8166 196.496 96.8563 196.43 96.9096C196.364 96.9628 196.308 97.0287 196.268 97.1033L195.988 97.5428C195.321 98.5924 194.421 99.4747 193.359 100.122C192.297 100.769 191.1 101.164 189.861 101.275L189.521 101.306C188.19 101.418 186.851 101.201 185.623 100.674C184.395 100.148 183.316 99.3267 182.48 98.2843C182.417 98.2067 182.331 98.1517 182.234 98.1277C182.097 98.1249 181.962 98.1708 181.855 98.2573L177.478 101.917C177.328 102.041 177.232 102.219 177.21 102.412C177.188 102.606 177.243 102.8 177.362 102.954L177.622 103.244Z" fill="white"/>
<path d="M186.644 118.562C185.427 117.788 184.467 116.67 183.886 115.351C183.304 114.031 183.126 112.569 183.376 111.148C183.625 109.728 184.29 108.413 185.286 107.371C186.283 106.328 187.566 105.605 188.974 105.291C190.382 104.978 191.851 105.09 193.195 105.611C194.54 106.133 195.699 107.042 196.527 108.222C197.355 109.403 197.815 110.803 197.847 112.245C197.88 113.686 197.484 115.105 196.71 116.322C195.672 117.954 194.029 119.107 192.141 119.527C190.253 119.947 188.276 119.6 186.644 118.562ZM192.235 109.772C191.713 109.441 191.105 109.271 190.487 109.285C189.869 109.299 189.269 109.496 188.763 109.851C188.257 110.206 187.868 110.702 187.644 111.279C187.421 111.855 187.373 112.484 187.507 113.088C187.641 113.691 187.951 114.241 188.398 114.668C188.845 115.095 189.408 115.38 190.017 115.487C190.626 115.594 191.253 115.518 191.818 115.269C192.384 115.019 192.863 114.608 193.194 114.086C193.639 113.387 193.788 112.54 193.608 111.73C193.428 110.921 192.934 110.217 192.235 109.772Z" fill="white"/>
</g>
<circle opacity="0.2" cx="120.79" cy="222.102" r="50" transform="rotate(32.4573 120.79 222.102)" fill="white"/>
<g clip-path="url(#clip4_111_650)">
<path d="M132.617 234.562L125.058 229.755L130.814 223.539L137.09 227.531C137.556 227.827 138.121 227.926 138.66 227.806C139.2 227.686 139.669 227.357 139.966 226.891C140.262 226.425 140.361 225.86 140.241 225.32C140.121 224.781 139.792 224.311 139.326 224.015L133.683 220.426L139.156 214.5C139.353 214.295 139.507 214.052 139.607 213.786C139.707 213.52 139.751 213.237 139.738 212.953C139.724 212.669 139.652 212.391 139.527 212.135C139.402 211.88 139.226 211.653 139.01 211.469C138.809 211.262 138.568 211.099 138.302 210.991C138.035 210.882 137.749 210.83 137.462 210.837C137.174 210.844 136.891 210.911 136.631 211.033C136.37 211.155 136.138 211.33 135.948 211.546L129.956 218.056L123.136 213.717L128.608 207.791C128.806 207.587 128.959 207.344 129.059 207.078C129.159 206.812 129.204 206.528 129.19 206.244C129.177 205.96 129.105 205.682 128.98 205.427C128.854 205.172 128.678 204.945 128.462 204.76C128.262 204.554 128.021 204.391 127.754 204.282C127.488 204.174 127.202 204.121 126.914 204.129C126.627 204.136 126.344 204.203 126.083 204.325C125.823 204.447 125.59 204.621 125.401 204.838L119.409 211.347L111.199 206.126C110.733 205.829 110.168 205.73 109.629 205.85C109.09 205.97 108.62 206.299 108.323 206.766C108.027 207.232 107.928 207.797 108.048 208.336C108.168 208.876 108.497 209.345 108.963 209.642L116.522 214.449L110.767 220.665L104.491 216.673C104.025 216.377 103.46 216.278 102.921 216.398C102.381 216.518 101.912 216.847 101.615 217.313C101.319 217.779 101.219 218.344 101.339 218.884C101.459 219.423 101.789 219.892 102.255 220.189L107.898 223.778L102.425 229.704C102.228 229.909 102.074 230.151 101.974 230.418C101.874 230.684 101.829 230.967 101.843 231.251C101.857 231.535 101.928 231.813 102.054 232.069C102.179 232.324 102.355 232.551 102.571 232.735C102.771 232.942 103.012 233.104 103.279 233.213C103.545 233.322 103.831 233.374 104.119 233.367C104.406 233.36 104.689 233.293 104.95 233.171C105.21 233.049 105.443 232.874 105.633 232.658L111.624 226.148L118.445 230.486L112.972 236.413C112.775 236.617 112.621 236.86 112.521 237.126C112.421 237.392 112.377 237.676 112.39 237.96C112.404 238.244 112.476 238.522 112.601 238.777C112.726 239.032 112.902 239.259 113.119 239.444C113.319 239.65 113.56 239.813 113.826 239.921C114.093 240.03 114.379 240.083 114.666 240.075C114.954 240.068 115.237 240.001 115.497 239.879C115.758 239.757 115.99 239.582 116.18 239.366L122.172 232.857L130.381 238.078C130.848 238.375 131.412 238.474 131.952 238.354C132.491 238.234 132.961 237.904 133.257 237.438C133.554 236.972 133.653 236.407 133.533 235.868C133.413 235.328 133.084 234.859 132.617 234.562ZM114.511 223.046L120.267 216.831L127.07 221.158L121.314 227.373L114.511 223.046Z" fill="white"/>
</g>
<circle opacity="0.2" cx="51.0231" cy="331.795" r="50" transform="rotate(32.4573 51.0231 331.795)" fill="white"/>
<g clip-path="url(#clip5_111_650)">
<path d="M68.6021 342.975C70.0704 340.667 71.0696 338.092 71.5426 335.397C72.0157 332.703 71.9534 329.941 71.3592 327.27C70.7651 324.6 69.6508 322.072 68.0799 319.833C66.509 317.593 64.5123 315.684 62.2038 314.216C57.5415 311.251 51.8923 310.259 46.4988 311.459C41.1053 312.659 36.4094 315.952 33.4441 320.614C30.4788 325.276 29.4871 330.926 30.687 336.319C31.8869 341.713 35.1802 346.408 39.8425 349.374C44.5047 352.339 50.154 353.331 55.5474 352.131C60.9409 350.931 65.6368 347.638 68.6021 342.975ZM66.0813 338.903L60.9307 335.627C63.2703 331.308 64.3826 326.432 64.1469 321.525C66.0472 323.959 67.2344 326.872 67.5759 329.94C67.9175 333.009 67.4 336.112 66.0813 338.903ZM44.772 330.288L55.1787 336.907C51.9666 340.964 47.5214 343.865 42.5146 345.172C41.5694 340.098 42.3648 334.854 44.772 330.288ZM47.0081 326.772C50.1659 322.711 54.5568 319.786 59.5204 318.435C60.4977 323.516 59.757 328.777 57.4149 333.391L47.0081 326.772ZM54.9866 315.625C50.4188 317.503 46.4419 320.577 43.4747 324.525L38.201 321.171C40.1973 318.765 42.8299 316.97 45.798 315.989C48.7662 315.009 51.9502 314.882 54.9866 315.625ZM35.9649 324.686L41.2386 328.041C38.8881 332.376 37.7796 337.275 38.0352 342.2C36.0867 339.766 34.8598 336.835 34.4939 333.739C34.1279 330.644 34.6376 327.507 35.9649 324.686ZM47.1874 347.996C51.7501 346.135 55.7256 343.076 58.6945 339.143L63.8803 342.441C61.8929 344.832 59.2764 346.619 56.3265 347.601C53.3767 348.582 50.2111 348.719 47.1874 347.996Z" fill="white"/>
</g>
<circle opacity="0.2" cx="421.777" cy="28.3703" r="50" transform="rotate(32.4573 421.777 28.3703)" fill="white"/>
<g clip-path="url(#clip6_111_650)">
<path d="M404.637 42.159C403.783 41.6084 403.13 40.7948 402.778 39.841L400.861 34.8195C400.438 33.6306 400.486 32.3249 400.995 31.1703C401.505 30.0157 402.437 29.1 403.6 28.6112C404.223 28.3412 404.773 27.9274 405.204 27.4037C405.636 26.88 405.938 26.2614 406.084 25.5986L406.157 25.2503C406.331 24.6764 406.366 24.0697 406.261 23.4795C406.156 22.8893 405.913 22.3322 405.553 21.8534L405.271 21.6745C404.464 20.6761 404.083 19.3996 404.212 18.1222C404.34 16.8447 404.967 15.6694 405.957 14.8516L410.305 11.1978C410.775 10.7527 411.334 10.413 411.945 10.2015C412.557 9.98996 413.206 9.91153 413.85 9.97143C414.451 10.0261 415.034 10.202 415.565 10.4886C416.096 10.7752 416.563 11.1665 416.938 11.6388C417.349 12.1481 417.879 12.5492 418.481 12.8072C419.083 13.0652 419.739 13.1723 420.391 13.1192L420.732 13.0887C421.333 13.0242 421.912 12.8255 422.426 12.5073C422.941 12.1892 423.377 11.7597 423.703 11.2505L423.971 10.8286C424.651 9.75 425.729 8.98345 426.971 8.69586C428.213 8.40826 429.518 8.62291 430.602 9.29307L435.085 12.1441C435.607 12.4784 436.058 12.9125 436.412 13.4216C436.767 13.9307 437.017 14.5048 437.148 15.1108C437.422 16.3903 437.176 17.7259 436.465 18.8244L436.152 19.3166C435.835 19.7957 435.635 20.3426 435.568 20.9132C435.501 21.4839 435.569 22.0623 435.766 22.6019L435.87 22.8655C436.077 23.4123 436.412 23.9011 436.848 24.2902C437.284 24.6793 437.808 24.9572 438.375 25.1002L439.095 25.287C439.708 25.4412 440.284 25.7174 440.788 26.0989C441.293 26.4805 441.715 26.9597 442.03 27.5079C442.345 28.0562 442.546 28.6622 442.621 29.2899C442.697 29.9176 442.645 30.5541 442.47 31.1615L441.041 36.4747C440.711 37.7028 439.918 38.7554 438.829 39.4115C437.74 40.0675 436.438 40.2759 435.199 39.9929L434.769 39.8924C434.144 39.7328 433.489 39.7291 432.863 39.8817C432.236 40.0342 431.657 40.3383 431.175 40.7673C430.726 41.1649 430.368 41.6549 430.125 42.2037C429.883 42.7526 429.761 43.3473 429.77 43.9473L429.802 44.906C429.849 46.1712 429.41 47.4064 428.575 48.3582C427.74 49.31 426.572 49.9063 425.312 50.025L420.046 50.5024C419.411 50.5574 418.772 50.4819 418.168 50.2806C417.564 50.0792 417.007 49.7564 416.532 49.3318C416.057 48.9073 415.675 48.3901 415.407 47.812C415.14 47.2339 414.994 46.6073 414.978 45.9706L414.957 45.5376C414.944 44.9218 414.776 44.3192 414.467 43.7862C414.158 43.2531 413.72 42.807 413.192 42.4893C412.688 42.1868 412.12 42.007 411.534 41.9644C410.948 41.9218 410.36 42.0176 409.817 42.2441L409.044 42.567C408.459 42.8255 407.826 42.9613 407.186 42.9662C406.546 42.971 405.912 42.8447 405.323 42.5951C405.081 42.4724 404.851 42.3264 404.637 42.159ZM408.842 19.205C409.609 20.1903 410.135 21.3421 410.376 22.5676C410.617 23.793 410.567 25.058 410.231 26.2607L410.096 26.4717C409.809 27.7619 409.219 28.9653 408.374 29.9823C407.53 30.9994 406.456 31.801 405.24 32.321C405.051 32.3731 404.888 32.4937 404.782 32.6594C404.677 32.825 404.637 33.0239 404.67 33.2175L406.627 38.4867C406.652 38.5568 406.691 38.6208 406.743 38.6744C406.794 38.728 406.856 38.77 406.925 38.7975C406.995 38.8251 407.069 38.8375 407.143 38.834C407.217 38.8305 407.29 38.8112 407.356 38.7773L408.129 38.4544C409.299 37.9611 410.572 37.759 411.837 37.8652C413.103 37.9715 414.323 38.383 415.395 39.0646C416.467 39.7461 417.357 40.6773 417.99 41.7783C418.622 42.8794 418.979 44.1174 419.028 45.3864L419.038 45.837C419.045 45.9923 419.11 46.1392 419.22 46.2492C419.273 46.2952 419.335 46.3299 419.402 46.3513C419.469 46.3727 419.54 46.3804 419.61 46.3737L424.975 45.9346C425.166 45.9146 425.342 45.8223 425.467 45.6766C425.592 45.531 425.656 45.343 425.646 45.1515L425.614 44.1928C425.571 42.9456 425.808 41.7047 426.309 40.5615C426.809 39.4184 427.56 38.4023 428.506 37.5882C429.489 36.7253 430.664 36.1111 431.934 35.7971C433.204 35.4832 434.53 35.4787 435.802 35.7841L436.231 35.8846C436.415 35.9191 436.605 35.8795 436.76 35.7744C436.915 35.6693 437.022 35.5072 437.057 35.3236L438.47 30.0743C438.486 29.9768 438.482 29.8771 438.458 29.7812C438.434 29.6854 438.391 29.5954 438.331 29.5167C438.296 29.4575 438.247 29.4075 438.189 29.3706C438.131 29.3336 438.065 29.3109 437.997 29.3043L437.276 29.1175C436.053 28.8081 434.923 28.2063 433.984 27.3638C433.045 26.5212 432.324 25.4631 431.884 24.2805L431.914 24.0776C431.492 22.9428 431.339 21.7255 431.466 20.5214C431.594 19.3174 431.999 18.1592 432.649 17.138L432.996 16.593C433.107 16.4256 433.148 16.2215 433.111 16.0242C433.068 15.8685 432.968 15.7345 432.831 15.6488L428.366 12.8089C428.292 12.7678 428.21 12.7418 428.125 12.7325C428.041 12.7231 427.955 12.7305 427.873 12.7543C427.792 12.778 427.716 12.8177 427.649 12.871C427.583 12.9243 427.528 12.9901 427.487 13.0647L427.208 13.5042C426.54 14.5538 425.641 15.4362 424.579 16.0833C423.516 16.7304 422.32 17.125 421.081 17.2367L420.741 17.2671C419.409 17.3795 418.071 17.1628 416.843 16.6359C415.615 16.109 414.536 15.2881 413.7 14.2457C413.637 14.1681 413.551 14.1132 413.454 14.0892C413.316 14.0863 413.182 14.1322 413.075 14.2187L408.698 17.8788C408.548 18.0027 408.451 18.1802 408.43 18.3738C408.408 18.5673 408.462 18.7617 408.581 18.9158L408.842 19.205Z" fill="white"/>
<path d="M417.864 34.5232C416.647 33.7493 415.687 32.6318 415.105 31.3122C414.523 29.9926 414.346 28.5302 414.595 27.1097C414.845 25.6893 415.51 24.3747 416.506 23.3322C417.503 22.2897 418.786 21.5661 420.194 21.2529C421.601 20.9397 423.07 21.051 424.415 21.5727C425.759 22.0944 426.919 23.0031 427.747 24.1838C428.575 25.3645 429.034 26.7643 429.067 28.2061C429.099 29.6479 428.704 31.0669 427.93 32.2838C426.892 33.9156 425.248 35.0682 423.361 35.4882C421.473 35.9082 419.496 35.5611 417.864 34.5232ZM423.454 25.7337C422.933 25.402 422.324 25.2324 421.707 25.2464C421.089 25.2603 420.489 25.4572 419.983 25.8121C419.477 26.1669 419.087 26.6639 418.864 27.2401C418.64 27.8163 418.592 28.4459 418.727 29.0492C418.861 29.6525 419.171 30.2025 419.618 30.6296C420.065 31.0566 420.628 31.3416 421.237 31.4485C421.845 31.5554 422.472 31.4793 423.038 31.23C423.603 30.9806 424.082 30.5692 424.414 30.0477C424.859 29.3483 425.007 28.5009 424.827 27.6919C424.647 26.8829 424.153 26.1785 423.454 25.7337Z" fill="white"/>
</g>
<circle opacity="0.2" cx="352.01" cy="138.063" r="50" transform="rotate(32.4573 352.01 138.063)" fill="white"/>
<g clip-path="url(#clip7_111_650)">
<path d="M363.837 150.524L356.278 145.716L362.033 139.501L368.309 143.492C368.775 143.789 369.34 143.888 369.88 143.768C370.419 143.648 370.889 143.318 371.185 142.852C371.482 142.386 371.581 141.821 371.461 141.282C371.341 140.742 371.011 140.273 370.545 139.976L364.902 136.387L370.375 130.461C370.573 130.257 370.726 130.014 370.826 129.748C370.926 129.482 370.971 129.198 370.957 128.914C370.943 128.63 370.872 128.352 370.747 128.097C370.621 127.842 370.445 127.615 370.229 127.43C370.029 127.224 369.788 127.061 369.521 126.952C369.255 126.843 368.969 126.791 368.681 126.798C368.394 126.806 368.111 126.872 367.85 126.994C367.59 127.117 367.357 127.291 367.168 127.508L361.176 134.017L354.355 129.679L359.828 123.753C360.025 123.548 360.179 123.305 360.279 123.039C360.379 122.773 360.423 122.49 360.41 122.206C360.396 121.922 360.324 121.644 360.199 121.388C360.074 121.133 359.898 120.906 359.682 120.722C359.481 120.515 359.24 120.353 358.974 120.244C358.708 120.135 358.422 120.083 358.134 120.09C357.846 120.097 357.563 120.164 357.303 120.286C357.042 120.408 356.81 120.583 356.62 120.799L350.628 127.309L342.419 122.087C341.953 121.791 341.388 121.692 340.848 121.812C340.309 121.932 339.839 122.261 339.543 122.727C339.246 123.193 339.147 123.758 339.267 124.298C339.387 124.837 339.717 125.307 340.183 125.603L347.742 130.411L341.986 136.626L335.71 132.635C335.244 132.338 334.679 132.239 334.14 132.359C333.601 132.479 333.131 132.808 332.835 133.274C332.538 133.741 332.439 134.306 332.559 134.845C332.679 135.384 333.008 135.854 333.474 136.15L339.117 139.739L333.644 145.666C333.447 145.87 333.294 146.113 333.194 146.379C333.093 146.645 333.049 146.929 333.063 147.213C333.076 147.497 333.148 147.775 333.273 148.03C333.398 148.285 333.574 148.512 333.791 148.697C333.991 148.903 334.232 149.066 334.498 149.175C334.765 149.283 335.051 149.336 335.338 149.328C335.626 149.321 335.909 149.254 336.169 149.132C336.43 149.01 336.662 148.836 336.852 148.619L342.844 142.11L349.665 146.448L344.192 152.374C343.994 152.578 343.841 152.821 343.741 153.087C343.641 153.353 343.596 153.637 343.61 153.921C343.624 154.205 343.695 154.483 343.821 154.738C343.946 154.994 344.122 155.22 344.338 155.405C344.538 155.611 344.779 155.774 345.046 155.883C345.312 155.992 345.598 156.044 345.886 156.037C346.173 156.029 346.456 155.963 346.717 155.841C346.977 155.719 347.21 155.544 347.399 155.328L353.391 148.818L361.601 154.039C362.067 154.336 362.632 154.435 363.171 154.315C363.711 154.195 364.18 153.866 364.477 153.4C364.773 152.933 364.872 152.368 364.752 151.829C364.632 151.29 364.303 150.82 363.837 150.524ZM345.731 139.008L351.486 132.792L358.289 137.119L352.534 143.335L345.731 139.008Z" fill="white"/>
</g>
<circle opacity="0.2" cx="282.243" cy="247.756" r="50" transform="rotate(32.4573 282.243 247.756)" fill="white"/>
<g clip-path="url(#clip8_111_650)">
<path d="M299.822 258.937C301.29 256.628 302.289 254.053 302.762 251.359C303.235 248.664 303.173 245.902 302.579 243.232C301.985 240.561 300.87 238.034 299.299 235.794C297.728 233.554 295.732 231.645 293.423 230.177C288.761 227.212 283.112 226.22 277.718 227.42C272.325 228.62 267.629 231.913 264.664 236.576C261.698 241.238 260.707 246.887 261.906 252.281C263.106 257.674 266.4 262.37 271.062 265.335C275.724 268.301 281.373 269.292 286.767 268.092C292.16 266.892 296.856 263.599 299.822 258.937ZM297.301 254.865L292.15 251.589C294.49 247.27 295.602 242.393 295.366 237.487C297.267 239.92 298.454 242.833 298.795 245.902C299.137 248.97 298.62 252.073 297.301 254.865ZM275.991 246.249L286.398 252.868C283.186 256.925 278.741 259.827 273.734 261.134C272.789 256.06 273.584 250.815 275.991 246.249ZM278.228 242.734C281.385 238.673 285.776 235.747 290.74 234.396C291.717 239.477 290.976 244.739 288.634 249.353L278.228 242.734ZM286.206 231.587C281.638 233.464 277.661 236.538 274.694 240.486L269.421 237.132C271.417 234.727 274.049 232.931 277.018 231.951C279.986 230.97 283.17 230.844 286.206 231.587ZM267.184 240.648L272.458 244.002C270.108 248.337 268.999 253.237 269.255 258.161C267.306 255.728 266.079 252.797 265.713 249.701C265.347 246.605 265.857 243.469 267.184 240.648ZM278.407 263.958C282.97 262.096 286.945 259.037 289.914 255.104L295.1 258.403C293.112 260.793 290.496 262.581 287.546 263.562C284.596 264.544 281.431 264.681 278.407 263.958Z" fill="white"/>
</g>
<circle opacity="0.2" cx="212.475" cy="357.449" r="50" transform="rotate(32.4573 212.475 357.449)" fill="white"/>
<g clip-path="url(#clip9_111_650)">
<path d="M234.113 361.162C232.34 353.819 227.788 347.451 221.414 343.397C215.04 339.342 207.341 337.92 199.939 339.427C199.433 339.568 198.998 339.896 198.723 340.344C198.448 340.792 198.353 341.328 198.456 341.843C198.559 342.359 198.853 342.816 199.28 343.124C199.706 343.431 200.233 343.566 200.755 343.502C207.107 342.201 213.715 343.419 219.186 346.899C224.657 350.378 228.562 355.847 230.077 362.151C230.203 362.672 230.525 363.125 230.977 363.415C231.214 363.564 231.479 363.664 231.756 363.709C232.033 363.754 232.317 363.742 232.589 363.675C233.123 363.542 233.584 363.204 233.869 362.733C234.155 362.262 234.242 361.698 234.113 361.162Z" fill="white"/>
</g>
<circle opacity="0.2" cx="588.596" cy="45.5861" r="50" transform="rotate(32.4573 588.596 45.5861)" fill="white"/>
<g clip-path="url(#clip10_111_650)">
<path d="M600.423 58.0466L592.864 53.2389L598.62 47.0235L604.895 51.015C605.362 51.3116 605.926 51.4107 606.466 51.2907C607.005 51.1707 607.475 50.8414 607.771 50.3752C608.068 49.909 608.167 49.344 608.047 48.8047C607.927 48.2653 607.598 47.7958 607.131 47.4992L601.489 43.9102L606.961 37.9841C607.159 37.7796 607.312 37.5368 607.412 37.2707C607.512 37.0047 607.557 36.7209 607.543 36.437C607.53 36.1531 607.458 35.8749 607.333 35.6197C607.208 35.3645 607.031 35.1376 606.815 34.953C606.615 34.7466 606.374 34.5839 606.108 34.4751C605.841 34.3664 605.555 34.314 605.268 34.3213C604.98 34.3286 604.697 34.3954 604.436 34.5174C604.176 34.6395 603.943 34.8141 603.754 35.0305L597.762 41.5399L590.941 37.2019L596.414 31.2757C596.611 31.0712 596.765 30.8284 596.865 30.5623C596.965 30.2963 597.01 30.0125 596.996 29.7286C596.982 29.4447 596.911 29.1665 596.785 28.9113C596.66 28.6561 596.484 28.4292 596.268 28.2446C596.067 28.0382 595.827 27.8755 595.56 27.7668C595.294 27.658 595.008 27.6057 594.72 27.6129C594.433 27.6202 594.15 27.687 593.889 27.809C593.628 27.9311 593.396 28.1058 593.206 28.3221L587.214 34.8316L579.005 29.6102C578.539 29.3137 577.974 29.2145 577.435 29.3345C576.895 29.4545 576.426 29.7838 576.129 30.25C575.833 30.7163 575.733 31.2812 575.853 31.8205C575.973 32.3599 576.303 32.8295 576.769 33.126L584.328 37.9337L578.572 44.1491L572.297 40.1576C571.83 39.8611 571.266 39.7619 570.726 39.8819C570.187 40.0019 569.717 40.3312 569.421 40.7974C569.124 41.2637 569.025 41.8286 569.145 42.3679C569.265 42.9073 569.594 43.3769 570.061 43.6734L575.703 47.2624L570.231 53.1885C570.033 53.3931 569.88 53.6358 569.78 53.9019C569.68 54.168 569.635 54.4517 569.649 54.7356C569.662 55.0196 569.734 55.2977 569.859 55.5529C569.984 55.8081 570.161 56.035 570.377 56.2196C570.577 56.426 570.818 56.5888 571.084 56.6975C571.351 56.8062 571.637 56.8586 571.924 56.8513C572.212 56.844 572.495 56.7773 572.756 56.6552C573.016 56.5332 573.249 56.3585 573.438 56.1421L579.43 49.6327L586.251 53.9708L580.778 59.8969C580.581 60.1014 580.427 60.3442 580.327 60.6103C580.227 60.8763 580.182 61.1601 580.196 61.444C580.21 61.7279 580.281 62.0061 580.407 62.2613C580.532 62.5165 580.708 62.7434 580.924 62.928C581.125 63.1344 581.366 63.2971 581.632 63.4059C581.898 63.5146 582.184 63.567 582.472 63.5597C582.759 63.5524 583.042 63.4856 583.303 63.3636C583.564 63.2415 583.796 63.0669 583.986 62.8505L589.978 56.3411L598.187 61.5624C598.653 61.8589 599.218 61.9581 599.757 61.8381C600.297 61.7181 600.766 61.3888 601.063 60.9226C601.359 60.4564 601.459 59.8914 601.339 59.3521C601.219 58.8127 600.889 58.3431 600.423 58.0466ZM582.317 46.5306L588.072 40.3152L594.875 44.6421L589.12 50.8575L582.317 46.5306Z" fill="white"/>
</g>
<circle opacity="0.2" cx="518.829" cy="155.279" r="50" transform="rotate(32.4573 518.829 155.279)" fill="white"/>
<g clip-path="url(#clip11_111_650)">
<path d="M536.408 166.46C537.876 164.151 538.875 161.576 539.348 158.882C539.821 156.187 539.759 153.425 539.165 150.755C538.571 148.084 537.456 145.557 535.886 143.317C534.315 141.077 532.318 139.168 530.009 137.7C525.347 134.735 519.698 133.743 514.304 134.943C508.911 136.143 504.215 139.436 501.25 144.099C498.284 148.761 497.293 154.41 498.493 159.803C499.693 165.197 502.986 169.893 507.648 172.858C512.31 175.823 517.96 176.815 523.353 175.615C528.747 174.415 533.442 171.122 536.408 166.46ZM533.887 162.388L528.736 159.112C531.076 154.793 532.188 149.916 531.953 145.01C533.853 147.443 535.04 150.356 535.382 153.425C535.723 156.493 535.206 159.596 533.887 162.388ZM512.578 153.772L522.984 160.391C519.772 164.448 515.327 167.349 510.32 168.657C509.375 163.583 510.17 158.338 512.578 153.772ZM514.814 150.257C517.972 146.196 522.362 143.27 527.326 141.919C528.303 147 527.563 152.262 525.221 156.875L514.814 150.257ZM522.792 139.11C518.224 140.987 514.248 144.061 511.28 148.009L506.007 144.655C508.003 142.25 510.636 140.454 513.604 139.473C516.572 138.493 519.756 138.367 522.792 139.11ZM503.771 148.171L509.044 151.525C506.694 155.86 505.585 160.76 505.841 165.684C503.892 163.251 502.665 160.32 502.3 157.224C501.934 154.128 502.443 150.992 503.771 148.171ZM514.993 171.481C519.556 169.619 523.531 166.56 526.5 162.627L531.686 165.926C529.699 168.316 527.082 170.103 524.132 171.085C521.182 172.067 518.017 172.204 514.993 171.481Z" fill="white"/>
</g>
<circle opacity="0.2" cx="449.062" cy="264.972" r="50" transform="rotate(32.4573 449.062 264.972)" fill="white"/>
<g clip-path="url(#clip12_111_650)">
<path d="M440.117 279.036C441.088 279.653 442.376 279.367 442.993 278.396C443.611 277.425 443.324 276.137 442.353 275.52C441.382 274.902 440.095 275.189 439.477 276.16C438.86 277.131 439.146 278.418 440.117 279.036Z" fill="white"/>
<path d="M446.826 268.488C444.55 267.041 441.803 266.532 439.16 267.069C438.619 267.18 438.143 267.501 437.838 267.962C437.533 268.424 437.424 268.987 437.534 269.529C437.645 270.071 437.966 270.546 438.427 270.851C438.889 271.156 439.452 271.265 439.994 271.155C441.574 270.876 443.201 271.198 444.554 272.059C445.908 272.92 446.89 274.257 447.307 275.806C447.436 276.344 447.774 276.808 448.246 277.096C448.718 277.385 449.285 277.474 449.822 277.344C450.36 277.215 450.824 276.877 451.112 276.405C451.401 275.933 451.49 275.366 451.36 274.829C450.726 272.208 449.101 269.935 446.826 268.488Z" fill="white"/>
<path d="M452.416 259.699C450.292 258.35 447.918 257.442 445.436 257.03C442.953 256.618 440.414 256.709 437.968 257.299C437.699 257.367 437.447 257.487 437.225 257.652C437.003 257.817 436.815 258.024 436.673 258.262C436.531 258.5 436.438 258.763 436.398 259.037C436.357 259.31 436.371 259.589 436.439 259.858C436.576 260.4 436.922 260.865 437.402 261.152C437.639 261.294 437.903 261.388 438.176 261.428C438.45 261.468 438.729 261.454 438.998 261.386C440.903 260.925 442.882 260.854 444.815 261.175C446.749 261.496 448.598 262.204 450.252 263.256C451.907 264.308 453.332 265.682 454.442 267.298C455.553 268.913 456.327 270.735 456.717 272.656C456.774 272.926 456.884 273.182 457.041 273.408C457.198 273.635 457.398 273.829 457.63 273.978C457.974 274.195 458.375 274.306 458.782 274.298C459.189 274.291 459.585 274.164 459.92 273.933C460.256 273.703 460.517 273.379 460.67 273.002C460.824 272.625 460.864 272.211 460.785 271.812C460.28 269.333 459.277 266.981 457.839 264.9C456.401 262.818 454.556 261.049 452.416 259.699Z" fill="white"/>
<path d="M470.699 268.685C468.926 261.342 464.374 254.973 458 250.919C451.626 246.865 443.927 245.443 436.525 246.95C436.019 247.091 435.585 247.419 435.31 247.867C435.034 248.315 434.939 248.851 435.042 249.366C435.145 249.882 435.44 250.339 435.866 250.647C436.293 250.954 436.82 251.089 437.341 251.025C443.693 249.724 450.302 250.942 455.772 254.422C461.243 257.901 465.148 263.37 466.663 269.674C466.789 270.195 467.112 270.648 467.563 270.938C467.8 271.087 468.066 271.187 468.343 271.232C468.62 271.277 468.903 271.265 469.175 271.198C469.71 271.065 470.17 270.727 470.455 270.256C470.741 269.785 470.829 269.221 470.699 268.685Z" fill="white"/>
</g>
<circle opacity="0.2" cx="379.295" cy="374.665" r="50" transform="rotate(32.4573 379.295 374.665)" fill="white"/>
<circle opacity="0.2" cx="608.367" cy="294.002" r="50" transform="rotate(32.4573 608.367 294.002)" fill="white"/>
<circle opacity="0.2" cx="538.6" cy="403.695" r="50" transform="rotate(32.4573 538.6 403.695)" fill="white"/>
</g>
</g>
<defs>
<clipPath id="clip0_111_650">
<path d="M0 0H563C568.523 0 573 4.47715 573 10V331C573 336.523 568.523 341 563 341H0V0Z" fill="white"/>
</clipPath>
<clipPath id="clip1_111_650">
<rect width="500" height="620" fill="white" transform="translate(314.736 -176) rotate(32.4573)"/>
</clipPath>
<clipPath id="clip2_111_650">
<rect width="50" height="50" fill="white" transform="translate(252.647 -31.7954) rotate(32.4573)"/>
</clipPath>
<clipPath id="clip3_111_650">
<rect width="50" height="50" fill="white" transform="translate(182.879 77.8975) rotate(32.4573)"/>
</clipPath>
<clipPath id="clip4_111_650">
<rect width="50" height="50" fill="white" transform="translate(113.112 187.59) rotate(32.4573)"/>
</clipPath>
<clipPath id="clip5_111_650">
<rect width="50" height="50" fill="white" transform="translate(43.3451 297.283) rotate(32.4573)"/>
</clipPath>
<clipPath id="clip6_111_650">
<rect width="50" height="50" fill="white" transform="translate(414.099 -6.14111) rotate(32.4573)"/>
</clipPath>
<clipPath id="clip7_111_650">
<rect width="50" height="50" fill="white" transform="translate(344.332 103.552) rotate(32.4573)"/>
</clipPath>
<clipPath id="clip8_111_650">
<rect width="50" height="50" fill="white" transform="translate(274.565 213.245) rotate(32.4573)"/>
</clipPath>
<clipPath id="clip9_111_650">
<rect width="50" height="50" fill="white" transform="translate(204.797 322.938) rotate(32.4573)"/>
</clipPath>
<clipPath id="clip10_111_650">
<rect width="50" height="50" fill="white" transform="translate(580.918 11.0747) rotate(32.4573)"/>
</clipPath>
<clipPath id="clip11_111_650">
<rect width="50" height="50" fill="white" transform="translate(511.151 120.768) rotate(32.4573)"/>
</clipPath>
<clipPath id="clip12_111_650">
<rect width="50" height="50" fill="white" transform="translate(441.384 230.461) rotate(32.4573)"/>
</clipPath>
</defs>
</svg>
