<svg width="386" height="447" viewBox="0 0 386 447" fill="none" xmlns="http://www.w3.org/2000/svg">
<path d="M7.32617 17.0517C6.17948 17.0517 5.14449 16.806 4.22118 16.3145C3.31277 15.8082 2.59796 15.1232 2.07674 14.2594C1.55552 13.3957 1.29491 12.4426 1.29491 11.4002C1.29491 10.328 1.55552 9.35997 2.07674 8.49624C2.61285 7.61761 3.34256 6.92513 4.26586 6.4188C5.18916 5.91248 6.22416 5.65931 7.37084 5.65931C8.78558 5.65931 9.99928 6.03906 11.0119 6.79855C12.0395 7.54315 12.7766 8.51858 13.2234 9.72483L12.1735 10.2833C11.8757 9.16638 11.2949 8.27286 10.4311 7.60272C9.5823 6.93258 8.54731 6.59751 7.32617 6.59751C6.40286 6.59751 5.56146 6.806 4.80197 7.22297C4.05737 7.63995 3.46914 8.21329 3.03727 8.943C2.6054 9.65781 2.38947 10.462 2.38947 11.3555C2.38947 12.249 2.59796 13.0606 3.01493 13.7903C3.4468 14.5052 4.03503 15.0711 4.77963 15.488C5.53913 15.905 6.38797 16.1135 7.32617 16.1135C8.62177 16.1135 9.6791 15.7784 10.4982 15.1083C11.3172 14.4381 11.8757 13.5446 12.1735 12.4277L13.2234 12.9862C12.7617 14.2222 12.032 15.2125 11.0343 15.9571C10.0514 16.6868 8.81537 17.0517 7.32617 17.0517Z" fill="#78BE74"/>
<path d="M22.8827 17.0517C21.7509 17.0517 20.7308 16.806 19.8224 16.3145C18.9139 15.8082 18.1991 15.1232 17.6779 14.2594C17.1716 13.3957 16.9184 12.4426 16.9184 11.4002C16.9184 10.328 17.179 9.35997 17.7002 8.49624C18.2364 7.61761 18.9661 6.92513 19.8894 6.4188C20.8127 5.91248 21.8477 5.65931 22.9944 5.65931C24.1261 5.65931 25.1462 5.91248 26.0547 6.4188C26.9631 6.91024 27.6704 7.58783 28.1768 8.45156C28.698 9.3153 28.9586 10.2684 28.9586 11.3108C28.9586 12.383 28.6905 13.3585 28.1544 14.2371C27.6332 15.1008 26.9109 15.7859 25.9876 16.2922C25.0643 16.7985 24.0293 17.0517 22.8827 17.0517ZM22.9273 16.1135C23.8506 16.1135 24.6846 15.905 25.4292 15.488C26.1887 15.0711 26.7844 14.5052 27.2162 13.7903C27.6481 13.0606 27.864 12.249 27.864 11.3555C27.864 10.462 27.6481 9.65781 27.2162 8.943C26.7993 8.21329 26.211 7.63995 25.4515 7.22297C24.7069 6.806 23.873 6.59751 22.9497 6.59751C22.0264 6.59751 21.185 6.806 20.4255 7.22297C19.6809 7.63995 19.0927 8.21329 18.6608 8.943C18.2289 9.65781 18.013 10.462 18.013 11.3555C18.013 12.249 18.2215 13.0606 18.6384 13.7903C19.0703 14.5052 19.6585 15.0711 20.4031 15.488C21.1626 15.905 22.004 16.1135 22.9273 16.1135Z" fill="#78BE74"/>
<path d="M39.4189 5.65931C41.191 5.65931 42.4866 6.07629 43.3057 6.91024C44.1248 7.7293 44.5343 8.99512 44.5343 10.7077V16.8283H43.4621V10.9311C43.4621 9.35253 43.1419 8.23563 42.5015 7.58038C41.8761 6.92513 40.8113 6.59751 39.3072 6.59751C37.7584 6.59751 36.5969 7.01448 35.8225 7.84844C35.063 8.68239 34.6832 9.73972 34.6832 11.0204V16.8283H33.611V5.88269H34.4599V8.31753H34.5715C34.9587 7.46869 35.5544 6.81344 36.3586 6.35179C37.1776 5.89014 38.1977 5.65931 39.4189 5.65931Z" fill="#78BE74"/>
<path d="M54.981 17.0517C53.3875 17.0517 52.0994 16.7985 51.1165 16.2922C50.1485 15.771 49.4412 14.9817 48.9944 13.9244L49.9773 13.3883C50.2453 14.2818 50.8112 14.9594 51.6749 15.421C52.5387 15.8827 53.6556 16.1135 55.0257 16.1135C56.2468 16.1135 57.2371 15.9125 57.9966 15.5104C58.771 15.0934 59.1582 14.5349 59.1582 13.835C59.1582 13.284 58.9348 12.867 58.488 12.5841C58.0562 12.3011 57.2967 12.1001 56.2096 11.981L53.596 11.6906C52.1962 11.5417 51.2059 11.2438 50.6251 10.7971C50.0443 10.3503 49.7539 9.73227 49.7539 8.943C49.7539 8.31753 49.9624 7.75908 50.3793 7.26765C50.8112 6.76132 51.392 6.36668 52.1217 6.08373C52.8663 5.80079 53.7077 5.65931 54.6459 5.65931C56.0011 5.65931 57.1403 5.91992 58.0636 6.44114C58.9869 6.96236 59.672 7.74419 60.1187 8.78663L59.1358 9.32274C58.8678 8.44412 58.3242 7.77398 57.5052 7.31232C56.701 6.83578 55.733 6.59751 54.6012 6.59751C53.5588 6.59751 52.6727 6.806 51.943 7.22297C51.2133 7.63995 50.8484 8.19095 50.8484 8.87598C50.8484 9.42699 51.0644 9.84396 51.4962 10.1269C51.943 10.4099 52.7099 10.6109 53.7971 10.73L56.4106 11.0204C57.8105 11.1694 58.8008 11.4672 59.3816 11.914C59.9623 12.3607 60.2527 12.9787 60.2527 13.768C60.2527 14.3935 60.0368 14.9594 59.6049 15.4657C59.1731 15.9571 58.5551 16.3443 57.7509 16.6273C56.9616 16.9102 56.0383 17.0517 54.981 17.0517Z" fill="#78BE74"/>
<path d="M71.9791 6.82089H67.0871V14.0361C67.0871 14.6913 67.2063 15.1679 67.4445 15.4657C67.6977 15.7486 68.137 15.8901 68.7625 15.8901H71.7111V16.8283H68.6955C67.8168 16.8283 67.1467 16.6049 66.685 16.1582C66.2383 15.6965 66.0149 15.0264 66.0149 14.1478V6.82089H62.8652V5.88269H65.3448C65.6277 5.88269 65.8064 5.84546 65.8809 5.771C65.9702 5.68165 66.0149 5.4955 66.0149 5.21255V2.75537H67.0871V5.88269H71.9791V6.82089Z" fill="#78BE74"/>
<path d="M28.2793 49.1516C27.6538 49.1516 27.2145 49.3005 26.9613 49.5983C26.723 49.8813 26.6039 50.3504 26.6039 51.0056V53.1277H30.7811V54.0659H26.6039V64.0734H25.5317V54.0659H22.382V53.1277H25.5317V50.9163C25.5317 50.0376 25.7625 49.3675 26.2242 48.9059C26.6858 48.4442 27.3559 48.2134 28.2346 48.2134H30.7811V49.1516H28.2793Z" fill="#A2E248"/>
<path d="M35.4206 64.0734H34.3484V53.1277H35.4206V64.0734ZM35.4429 50.8939H34.326V48.6601H35.4429V50.8939Z" fill="#A2E248"/>
<path d="M47.3501 53.1277V54.0436H46.0769C44.7068 54.0436 43.6942 54.4978 43.0389 55.4062C42.3986 56.2997 42.0784 57.5283 42.0784 59.092V64.0734H41.0062V53.1277H41.855V55.92H41.9444C42.6294 54.0585 44.0218 53.1277 46.1216 53.1277H47.3501Z" fill="#A2E248"/>
<path d="M55.3082 64.2967C53.7148 64.2967 52.4266 64.0436 51.4438 63.5372C50.4758 63.016 49.7684 62.2268 49.3216 61.1694L50.3045 60.6333C50.5726 61.5268 51.1385 62.2044 52.0022 62.6661C52.8659 63.1277 53.9828 63.3585 55.3529 63.3585C56.5741 63.3585 57.5644 63.1575 58.3239 62.7554C59.0983 62.3384 59.4854 61.78 59.4854 61.0801C59.4854 60.5291 59.2621 60.1121 58.8153 59.8291C58.3834 59.5462 57.6239 59.3451 56.5368 59.226L53.9233 58.9356C52.5234 58.7867 51.5331 58.4889 50.9523 58.0421C50.3715 57.5953 50.0811 56.9773 50.0811 56.188C50.0811 55.5626 50.2896 55.0041 50.7066 54.5127C51.1385 54.0064 51.7193 53.6117 52.449 53.3288C53.1936 53.0458 54.035 52.9044 54.9732 52.9044C56.3283 52.9044 57.4676 53.165 58.3909 53.6862C59.3142 54.2074 59.9992 54.9892 60.446 56.0317L59.4631 56.5678C59.195 55.6892 58.6515 55.019 57.8324 54.5574C57.0283 54.0808 56.0603 53.8426 54.9285 53.8426C53.886 53.8426 53 54.051 52.2703 54.468C51.5406 54.885 51.1757 55.436 51.1757 56.121C51.1757 56.672 51.3916 57.089 51.8235 57.372C52.2703 57.6549 53.0372 57.856 54.1243 57.9751L56.7379 58.2655C58.1377 58.4144 59.128 58.7122 59.7088 59.159C60.2896 59.6058 60.58 60.2238 60.58 61.0131C60.58 61.6385 60.3641 62.2044 59.9322 62.7107C59.5003 63.2022 58.8823 63.5894 58.0781 63.8723C57.2889 64.1553 56.3656 64.2967 55.3082 64.2967Z" fill="#A2E248"/>
<path d="M72.3064 54.0659H67.4144V61.2811C67.4144 61.9364 67.5335 62.4129 67.7718 62.7107C68.025 62.9937 68.4643 63.1352 69.0897 63.1352H72.0384V64.0734H69.0227C68.1441 64.0734 67.474 63.85 67.0123 63.4032C66.5655 62.9416 66.3422 62.2714 66.3422 61.3928V54.0659H63.1925V53.1277H65.672C65.955 53.1277 66.1337 53.0905 66.2081 53.016C66.2975 52.9267 66.3422 52.7405 66.3422 52.4576V50.0004H67.4144V53.1277H72.3064V54.0659Z" fill="#A2E248"/>
<path d="M89.2493 63.0681V50.0004H90.3662V64.0734H88.5344L77.9462 51.0056H77.8569V64.0734H76.74V50.0004H78.5717L89.1822 63.0681H89.2493Z" fill="#A2E248"/>
<path d="M109.345 63.1352V64.0734H108.094C107.23 64.0734 106.627 63.8872 106.284 63.5149C105.942 63.1277 105.771 62.5097 105.771 61.6609H105.681C105.22 62.5395 104.542 63.2022 103.649 63.6489C102.77 64.0808 101.72 64.2967 100.499 64.2967C99.0097 64.2967 97.8556 63.9989 97.0365 63.4032C96.2323 62.8075 95.8302 61.9959 95.8302 60.9684C95.8302 59.9706 96.1802 59.2111 96.8801 58.6899C97.5801 58.1538 98.7044 57.8113 100.253 57.6624L104.095 57.3049C104.646 57.2603 105.048 57.156 105.302 56.9922C105.57 56.8284 105.704 56.5678 105.704 56.2104C105.704 55.5551 105.376 54.9967 104.721 54.535C104.08 54.0734 103.068 53.8426 101.683 53.8426C100.357 53.8426 99.3224 54.0734 98.5778 54.535C97.8481 54.9818 97.3269 55.6668 97.0142 56.5901L96.0313 56.1434C96.8801 53.984 98.7789 52.9044 101.727 52.9044C102.889 52.9044 103.85 53.0607 104.609 53.3735C105.369 53.6713 105.92 54.0734 106.262 54.5797C106.619 55.0711 106.791 55.5998 106.776 56.1657L106.731 61.5045C106.731 61.9513 106.768 62.2863 106.843 62.5097C106.917 62.7331 107.059 62.8969 107.267 63.0011C107.491 63.0905 107.818 63.1352 108.25 63.1352H109.345ZM100.544 63.3585C101.378 63.3585 102.167 63.2245 102.911 62.9565C103.671 62.6735 104.296 62.264 104.788 61.7279C105.294 61.1769 105.592 60.5067 105.681 59.7175L105.704 57.7517C105.54 57.8857 105.302 57.9974 104.989 58.0868C104.676 58.1612 104.252 58.2208 103.716 58.2655L100.343 58.5782C99.0618 58.6973 98.1683 58.9431 97.662 59.3154C97.1705 59.6877 96.9248 60.2238 96.9248 60.9237C96.9248 61.6385 97.2301 62.2268 97.8407 62.6884C98.4512 63.1352 99.3522 63.3585 100.544 63.3585Z" fill="#A2E248"/>
<path d="M127.814 52.9044C129.572 52.9044 130.852 53.3213 131.657 54.1553C132.476 54.9743 132.885 56.2402 132.885 57.9527V64.0734H131.813V58.1761C131.813 56.6125 131.5 55.503 130.875 54.8478C130.249 54.1776 129.214 53.8426 127.77 53.8426C126.266 53.8426 125.134 54.267 124.374 55.1158C123.63 55.9498 123.257 56.9997 123.257 58.2655V64.0734H122.185V58.1761C122.185 56.6125 121.873 55.503 121.247 54.8478C120.622 54.1776 119.587 53.8426 118.142 53.8426C116.638 53.8426 115.506 54.267 114.747 55.1158C114.002 55.9498 113.63 56.9997 113.63 58.2655V64.0734H112.558V53.1277H113.406V55.5626H113.518C113.905 54.7137 114.494 54.0585 115.283 53.5968C116.087 53.1352 117.077 52.9044 118.254 52.9044C119.549 52.9044 120.584 53.1426 121.359 53.6192C122.133 54.0808 122.669 54.7882 122.967 55.7413C123.354 54.8329 123.957 54.1329 124.776 53.6415C125.596 53.1501 126.608 52.9044 127.814 52.9044Z" fill="#A2E248"/>
<path d="M143.486 63.3585C144.692 63.3585 145.668 63.1054 146.412 62.5991C147.172 62.0778 147.7 61.3928 147.998 60.544L148.981 61.0577C148.519 62.0853 147.812 62.882 146.859 63.4479C145.921 64.0138 144.774 64.2967 143.419 64.2967C142.213 64.2967 141.148 64.051 140.225 63.5596C139.316 63.0533 138.609 62.3682 138.102 61.5045C137.596 60.6408 137.343 59.6877 137.343 58.6452C137.343 57.573 137.604 56.605 138.125 55.7413C138.646 54.8627 139.361 54.1702 140.269 53.6639C141.193 53.1575 142.213 52.9044 143.33 52.9044C144.432 52.9044 145.429 53.1575 146.323 53.6639C147.216 54.1702 147.916 54.8552 148.423 55.7189C148.944 56.5827 149.204 57.5358 149.204 58.5782H138.438V58.6006C138.438 59.4941 138.646 60.3057 139.063 61.0354C139.48 61.7502 140.068 62.3161 140.828 62.7331C141.587 63.1501 142.473 63.3585 143.486 63.3585ZM143.285 53.8426C142.094 53.8426 141.051 54.2 140.158 54.9148C139.279 55.6296 138.735 56.5455 138.527 57.6624H148.021C147.797 56.5455 147.254 55.6296 146.39 54.9148C145.526 54.2 144.491 53.8426 143.285 53.8426Z" fill="#A2E248"/>
<path d="M155.265 64.0734H153.969V61.7279H155.265V64.0734ZM155.265 57.707H153.969V55.3615H155.265V57.707Z" fill="#A2E248"/>
<path d="M25.6433 111.318H24.5711V95.4585H25.6433V111.318Z" fill="#A2E248"/>
<path d="M44.1849 110.38V111.318H42.934C42.0703 111.318 41.4671 111.132 41.1246 110.76C40.7821 110.373 40.6108 109.755 40.6108 108.906H40.5215C40.0598 109.785 39.3822 110.447 38.4887 110.894C37.6101 111.326 36.5602 111.542 35.3391 111.542C33.8499 111.542 32.6957 111.244 31.8767 110.648C31.0725 110.053 30.6704 109.241 30.6704 108.213C30.6704 107.216 31.0204 106.456 31.7203 105.935C32.4202 105.399 33.5446 105.056 35.0934 104.907L38.9355 104.55C39.4865 104.505 39.8886 104.401 40.1417 104.237C40.4098 104.074 40.5438 103.813 40.5438 103.456C40.5438 102.8 40.2162 102.242 39.561 101.78C38.9206 101.318 37.9079 101.088 36.523 101.088C35.1976 101.088 34.1626 101.318 33.418 101.78C32.6883 102.227 32.1671 102.912 31.8543 103.835L30.8715 103.388C31.7203 101.229 33.619 100.149 36.5677 100.149C37.7292 100.149 38.6898 100.306 39.4493 100.619C40.2088 100.916 40.7598 101.318 41.1023 101.825C41.4597 102.316 41.6309 102.845 41.616 103.411L41.5714 108.75C41.5714 109.196 41.6086 109.531 41.6831 109.755C41.7575 109.978 41.899 110.142 42.1075 110.246C42.3309 110.336 42.6585 110.38 43.0904 110.38H44.1849ZM35.3837 110.604C36.2177 110.604 37.007 110.47 37.7516 110.202C38.5111 109.919 39.1365 109.509 39.628 108.973C40.1343 108.422 40.4321 107.752 40.5215 106.963L40.5438 104.997C40.38 105.131 40.1417 105.243 39.829 105.332C39.5163 105.406 39.0919 105.466 38.5557 105.511L35.1827 105.823C33.902 105.942 33.0085 106.188 32.5021 106.56C32.0107 106.933 31.765 107.469 31.765 108.169C31.765 108.884 32.0703 109.472 32.6808 109.934C33.2914 110.38 34.1924 110.604 35.3837 110.604Z" fill="#A2E248"/>
<path d="M52.4461 111.542C50.8527 111.542 49.5645 111.289 48.5817 110.782C47.6137 110.261 46.9063 109.472 46.4596 108.415L47.4424 107.878C47.7105 108.772 48.2764 109.45 49.1401 109.911C50.0039 110.373 51.1208 110.604 52.4908 110.604C53.712 110.604 54.7023 110.403 55.4618 110.001C56.2362 109.584 56.6233 109.025 56.6233 108.325C56.6233 107.774 56.4 107.357 55.9532 107.074C55.5213 106.791 54.7618 106.59 53.6747 106.471L51.0612 106.181C49.6613 106.032 48.671 105.734 48.0902 105.287C47.5094 104.84 47.219 104.222 47.219 103.433C47.219 102.808 47.4275 102.249 47.8445 101.758C48.2764 101.251 48.8572 100.857 49.5869 100.574C50.3315 100.291 51.1729 100.149 52.1111 100.149C53.4662 100.149 54.6055 100.41 55.5288 100.931C56.4521 101.453 57.1371 102.234 57.5839 103.277L56.601 103.813C56.333 102.934 55.7894 102.264 54.9703 101.802C54.1662 101.326 53.1982 101.088 52.0664 101.088C51.024 101.088 50.1379 101.296 49.4082 101.713C48.6785 102.13 48.3136 102.681 48.3136 103.366C48.3136 103.917 48.5295 104.334 48.9614 104.617C49.4082 104.9 50.1751 105.101 51.2622 105.22L53.8758 105.511C55.2756 105.66 56.2659 105.957 56.8467 106.404C57.4275 106.851 57.7179 107.469 57.7179 108.258C57.7179 108.884 57.502 109.45 57.0701 109.956C56.6382 110.447 56.0202 110.834 55.2161 111.117C54.4268 111.4 53.5035 111.542 52.4461 111.542Z" fill="#A2E248"/>
<path d="M69.4443 101.311H64.5523V108.526C64.5523 109.181 64.6714 109.658 64.9097 109.956C65.1629 110.239 65.6022 110.38 66.2276 110.38H69.1763V111.318H66.1606C65.282 111.318 64.6119 111.095 64.1502 110.648C63.7034 110.187 63.4801 109.517 63.4801 108.638V101.311H60.3304V100.373H62.8099C63.0929 100.373 63.2716 100.336 63.346 100.261C63.4354 100.172 63.4801 99.9857 63.4801 99.7027V97.2455H64.5523V100.373H69.4443V101.311Z" fill="#A2E248"/>
<path d="M86.3872 110.313V97.2455H87.5041V111.318H85.6723L75.0841 98.2507H74.9948V111.318H73.8779V97.2455H75.7096L86.3202 110.313H86.3872Z" fill="#A2E248"/>
<path d="M106.483 110.38V111.318H105.232C104.368 111.318 103.765 111.132 103.422 110.76C103.08 110.373 102.909 109.755 102.909 108.906H102.819C102.358 109.785 101.68 110.447 100.786 110.894C99.9078 111.326 98.8579 111.542 97.6368 111.542C96.1476 111.542 94.9935 111.244 94.1744 110.648C93.3702 110.053 92.9682 109.241 92.9682 108.213C92.9682 107.216 93.3181 106.456 94.018 105.935C94.718 105.399 95.8423 105.056 97.3911 104.907L101.233 104.55C101.784 104.505 102.186 104.401 102.439 104.237C102.708 104.074 102.842 103.813 102.842 103.456C102.842 102.8 102.514 102.242 101.859 101.78C101.218 101.318 100.206 101.088 98.8207 101.088C97.4953 101.088 96.4603 101.318 95.7157 101.78C94.986 102.227 94.4648 102.912 94.1521 103.835L93.1692 103.388C94.018 101.229 95.9168 100.149 98.8654 100.149C100.027 100.149 100.987 100.306 101.747 100.619C102.506 100.916 103.057 101.318 103.4 101.825C103.757 102.316 103.929 102.845 103.914 103.411L103.869 108.75C103.869 109.196 103.906 109.531 103.981 109.755C104.055 109.978 104.197 110.142 104.405 110.246C104.629 110.336 104.956 110.38 105.388 110.38H106.483ZM97.6815 110.604C98.5154 110.604 99.3047 110.47 100.049 110.202C100.809 109.919 101.434 109.509 101.926 108.973C102.432 108.422 102.73 107.752 102.819 106.963L102.842 104.997C102.678 105.131 102.439 105.243 102.127 105.332C101.814 105.406 101.39 105.466 100.853 105.511L97.4804 105.823C96.1997 105.942 95.3062 106.188 94.7999 106.56C94.3084 106.933 94.0627 107.469 94.0627 108.169C94.0627 108.884 94.368 109.472 94.9786 109.934C95.5891 110.38 96.4901 110.604 97.6815 110.604Z" fill="#A2E248"/>
<path d="M124.952 100.149C126.71 100.149 127.99 100.566 128.794 101.4C129.614 102.219 130.023 103.485 130.023 105.198V111.318H128.951V105.421C128.951 103.858 128.638 102.748 128.013 102.093C127.387 101.423 126.352 101.088 124.908 101.088C123.404 101.088 122.272 101.512 121.512 102.361C120.768 103.195 120.395 104.245 120.395 105.511V111.318H119.323V105.421C119.323 103.858 119.01 102.748 118.385 102.093C117.759 101.423 116.725 101.088 115.28 101.088C113.776 101.088 112.644 101.512 111.885 102.361C111.14 103.195 110.768 104.245 110.768 105.511V111.318H109.695V100.373H110.544V102.808H110.656C111.043 101.959 111.631 101.304 112.421 100.842C113.225 100.38 114.215 100.149 115.392 100.149C116.687 100.149 117.722 100.388 118.497 100.864C119.271 101.326 119.807 102.033 120.105 102.986C120.492 102.078 121.095 101.378 121.914 100.887C122.733 100.395 123.746 100.149 124.952 100.149Z" fill="#A2E248"/>
<path d="M140.624 110.604C141.83 110.604 142.806 110.35 143.55 109.844C144.31 109.323 144.838 108.638 145.136 107.789L146.119 108.303C145.657 109.33 144.95 110.127 143.997 110.693C143.059 111.259 141.912 111.542 140.557 111.542C139.351 111.542 138.286 111.296 137.362 110.805C136.454 110.298 135.747 109.613 135.24 108.75C134.734 107.886 134.481 106.933 134.481 105.89C134.481 104.818 134.741 103.85 135.263 102.986C135.784 102.108 136.499 101.415 137.407 100.909C138.33 100.403 139.351 100.149 140.467 100.149C141.569 100.149 142.567 100.403 143.461 100.909C144.354 101.415 145.054 102.1 145.561 102.964C146.082 103.828 146.342 104.781 146.342 105.823H135.575V105.846C135.575 106.739 135.784 107.551 136.201 108.281C136.618 108.995 137.206 109.561 137.966 109.978C138.725 110.395 139.611 110.604 140.624 110.604ZM140.423 101.088C139.231 101.088 138.189 101.445 137.295 102.16C136.417 102.875 135.873 103.791 135.665 104.907H145.158C144.935 103.791 144.392 102.875 143.528 102.16C142.664 101.445 141.629 101.088 140.423 101.088Z" fill="#A2E248"/>
<path d="M152.403 111.318H151.107V108.973H152.403V111.318ZM152.403 104.952H151.107V102.607H152.403V104.952Z" fill="#A2E248"/>
<path d="M37.5272 157.625V158.563H36.2763C35.4125 158.563 34.8094 158.377 34.4669 158.005C34.1244 157.617 33.9531 156.999 33.9531 156.151H33.8638C33.4021 157.029 32.7245 157.692 31.831 158.139C30.9524 158.57 29.9025 158.786 28.6813 158.786C27.1921 158.786 26.038 158.489 25.2189 157.893C24.4148 157.297 24.0127 156.486 24.0127 155.458C24.0127 154.46 24.3627 153.701 25.0626 153.18C25.7625 152.643 26.8869 152.301 28.4356 152.152L32.2778 151.795C32.8288 151.75 33.2308 151.646 33.484 151.482C33.7521 151.318 33.8861 151.057 33.8861 150.7C33.8861 150.045 33.5585 149.486 32.9032 149.025C32.2629 148.563 31.2502 148.332 29.8653 148.332C28.5399 148.332 27.5049 148.563 26.7603 149.025C26.0306 149.471 25.5093 150.157 25.1966 151.08L24.2137 150.633C25.0626 148.474 26.9613 147.394 29.9099 147.394C31.0715 147.394 32.032 147.55 32.7915 147.863C33.551 148.161 34.102 148.563 34.4445 149.069C34.802 149.561 34.9732 150.089 34.9583 150.655L34.9136 155.994C34.9136 156.441 34.9509 156.776 35.0253 156.999C35.0998 157.223 35.2413 157.387 35.4498 157.491C35.6731 157.58 36.0008 157.625 36.4326 157.625H37.5272ZM28.726 157.848C29.56 157.848 30.3492 157.714 31.0938 157.446C31.8533 157.163 32.4788 156.754 32.9702 156.218C33.4766 155.667 33.7744 154.996 33.8638 154.207L33.8861 152.241C33.7223 152.375 33.484 152.487 33.1713 152.576C32.8585 152.651 32.4341 152.71 31.898 152.755L28.525 153.068C27.2443 153.187 26.3507 153.433 25.8444 153.805C25.353 154.177 25.1073 154.713 25.1073 155.413C25.1073 156.128 25.4125 156.716 26.0231 157.178C26.6337 157.625 27.5347 157.848 28.726 157.848Z" fill="#A2E248"/>
<path d="M50.6529 157.29C52.425 157.29 53.6908 157.491 54.4503 157.893C55.2098 158.295 55.5896 158.98 55.5896 159.948C55.5896 161.035 55.0386 161.839 53.9365 162.361C52.8345 162.882 51.0996 163.142 48.7318 163.142H46.1406C43.8621 163.142 42.224 162.912 41.2262 162.45C40.2285 161.988 39.7296 161.273 39.7296 160.305C39.7296 159.695 39.9232 159.196 40.3104 158.809C40.6976 158.422 41.2858 158.131 42.0751 157.938V157.848C41.4347 157.67 40.9582 157.446 40.6454 157.178C40.3476 156.91 40.1987 156.538 40.1987 156.061C40.1987 155.153 40.9209 154.527 42.3655 154.185V154.095C41.9038 153.738 41.5464 153.329 41.2932 152.867C41.055 152.39 40.9358 151.884 40.9358 151.348C40.9358 150.633 41.1443 149.978 41.5613 149.382C41.9932 148.772 42.6112 148.288 43.4153 147.93C44.2344 147.573 45.2098 147.394 46.3416 147.394C47.3692 147.394 48.2776 147.573 49.0669 147.93C49.871 148.273 50.4444 148.772 50.7869 149.427H50.8762C50.9656 148.801 51.2113 148.347 51.6134 148.064C52.0155 147.766 52.5963 147.617 53.3558 147.617H55.1205V148.556H53.4898C52.9835 148.556 52.5963 148.608 52.3282 148.712C52.075 148.816 51.8963 149.002 51.7921 149.27C51.6878 149.524 51.6357 149.903 51.6357 150.41V151.259C51.6357 151.973 51.4198 152.636 50.9879 153.247C50.571 153.842 49.9529 154.319 49.1339 154.676C48.3297 155.034 47.3617 155.212 46.2299 155.212C45.1428 155.212 44.1823 155.034 43.3483 154.676C42.5591 154.825 42.0155 155.011 41.7177 155.235C41.4347 155.443 41.2932 155.711 41.2932 156.039C41.2932 156.873 42.2538 157.29 44.1748 157.29H50.6529ZM46.2969 148.31C45.3885 148.31 44.6141 148.451 43.9738 148.734C43.3334 149.002 42.8494 149.367 42.5218 149.829C42.1942 150.276 42.0304 150.767 42.0304 151.303C42.0304 151.839 42.1942 152.338 42.5218 152.8C42.8494 153.261 43.326 153.626 43.9515 153.894C44.5918 154.162 45.3662 154.296 46.2746 154.296C47.183 154.296 47.9574 154.162 48.5978 153.894C49.2381 153.611 49.7221 153.247 50.0497 152.8C50.3774 152.338 50.5412 151.839 50.5412 151.303C50.5412 150.767 50.3774 150.268 50.0497 149.807C49.7221 149.345 49.2381 148.98 48.5978 148.712C47.9723 148.444 47.2054 148.31 46.2969 148.31ZM48.7988 162.226C50.8986 162.226 52.3729 162.048 53.2217 161.69C54.0855 161.333 54.5173 160.767 54.5173 159.993C54.5173 159.546 54.3907 159.189 54.1376 158.92C53.8993 158.667 53.4972 158.489 52.9313 158.384C52.3654 158.265 51.5836 158.206 50.5858 158.206H44.4876C43.2069 158.221 42.2687 158.392 41.673 158.719C41.0922 159.062 40.8018 159.553 40.8018 160.194C40.8018 160.67 40.9656 161.05 41.2932 161.333C41.6209 161.631 42.1793 161.854 42.9686 162.003C43.7728 162.152 44.8822 162.226 46.2969 162.226H48.7988Z" fill="#A2E248"/>
<path d="M63.488 157.848C64.6942 157.848 65.6696 157.595 66.4142 157.089C67.1737 156.568 67.7024 155.882 68.0002 155.034L68.9831 155.547C68.5215 156.575 67.8141 157.372 66.861 157.938C65.9228 158.503 64.7761 158.786 63.4209 158.786C62.2147 158.786 61.1499 158.541 60.2266 158.049C59.3182 157.543 58.6108 156.858 58.1045 155.994C57.5982 155.13 57.345 154.177 57.345 153.135C57.345 152.063 57.6056 151.095 58.1268 150.231C58.6481 149.352 59.3629 148.66 60.2713 148.154C61.1946 147.647 62.2147 147.394 63.3316 147.394C64.4336 147.394 65.4314 147.647 66.3249 148.154C67.2184 148.66 67.9183 149.345 68.4247 150.209C68.9459 151.072 69.2065 152.025 69.2065 153.068H58.4396V153.09C58.4396 153.984 58.6481 154.795 59.065 155.525C59.482 156.24 60.0702 156.806 60.8297 157.223C61.5892 157.64 62.4753 157.848 63.488 157.848ZM63.2869 148.332C62.0956 148.332 61.0531 148.69 60.1596 149.404C59.281 150.119 58.7374 151.035 58.5289 152.152H68.0226C67.7992 151.035 67.2556 150.119 66.3919 149.404C65.5282 148.69 64.4932 148.332 63.2869 148.332Z" fill="#A2E248"/>
<path d="M75.2667 158.563H73.9711V156.218H75.2667V158.563ZM75.2667 152.197H73.9711V149.851H75.2667V152.197Z" fill="#A2E248"/>
<path d="M25.6433 394.788H24.5711V378.928H25.6433V394.788Z" fill="#A2E248"/>
<path d="M36.4336 394.073C37.6399 394.073 38.6153 393.82 39.3599 393.313C40.1194 392.792 40.6481 392.107 40.9459 391.258L41.9288 391.772C41.4671 392.8 40.7598 393.596 39.8067 394.162C38.8685 394.728 37.7218 395.011 36.3666 395.011C35.1604 395.011 34.0956 394.765 33.1723 394.274C32.2639 393.768 31.5565 393.083 31.0502 392.219C30.5438 391.355 30.2907 390.402 30.2907 389.36C30.2907 388.287 30.5513 387.319 31.0725 386.456C31.5937 385.577 32.3085 384.885 33.217 384.378C34.1403 383.872 35.1604 383.619 36.2773 383.619C37.3793 383.619 38.377 383.872 39.2706 384.378C40.1641 384.885 40.864 385.57 41.3703 386.433C41.8916 387.297 42.1522 388.25 42.1522 389.293H31.3852V389.315C31.3852 390.208 31.5937 391.02 32.0107 391.75C32.4277 392.465 33.0159 393.03 33.7754 393.447C34.5349 393.864 35.421 394.073 36.4336 394.073ZM36.2326 384.557C35.0412 384.557 33.9988 384.914 33.1053 385.629C32.2266 386.344 31.6831 387.26 31.4746 388.377H40.9682C40.7449 387.26 40.2013 386.344 39.3376 385.629C38.4738 384.914 37.4388 384.557 36.2326 384.557Z" fill="#A2E248"/>
<path d="M50.7066 394.788H49.545L44.1169 383.842H45.3008L50.1034 393.693H50.1928L54.9955 383.842H56.1347L50.7066 394.788Z" fill="#A2E248"/>
<path d="M64.2558 394.073C65.462 394.073 66.4375 393.82 67.1821 393.313C67.9416 392.792 68.4702 392.107 68.7681 391.258L69.7509 391.772C69.2893 392.8 68.5819 393.596 67.6288 394.162C66.6906 394.728 65.5439 395.011 64.1888 395.011C62.9825 395.011 61.9177 394.765 60.9944 394.274C60.086 393.768 59.3787 393.083 58.8723 392.219C58.366 391.355 58.1128 390.402 58.1128 389.36C58.1128 388.287 58.3734 387.319 58.8947 386.456C59.4159 385.577 60.1307 384.885 61.0391 384.378C61.9624 383.872 62.9825 383.619 64.0994 383.619C65.2014 383.619 66.1992 383.872 67.0927 384.378C67.9862 384.885 68.6862 385.57 69.1925 386.433C69.7137 387.297 69.9743 388.25 69.9743 389.293H59.2074V389.315C59.2074 390.208 59.4159 391.02 59.8329 391.75C60.2498 392.465 60.8381 393.03 61.5976 393.447C62.3571 393.864 63.2431 394.073 64.2558 394.073ZM64.0547 384.557C62.8634 384.557 61.8209 384.914 60.9274 385.629C60.0488 386.344 59.5052 387.26 59.2968 388.377H68.7904C68.567 387.26 68.0235 386.344 67.1597 385.629C66.296 384.914 65.261 384.557 64.0547 384.557Z" fill="#A2E248"/>
<path d="M75.6377 394.788H74.5655V378.928H75.6377V394.788Z" fill="#A2E248"/>
<path d="M82.4742 394.788H81.1786V392.442H82.4742V394.788ZM82.4742 388.421H81.1786V386.076H82.4742V388.421Z" fill="#A2E248"/>
<path d="M25.6433 205.808H24.5711V189.948H25.6433V205.808Z" fill="#A2E248"/>
<path d="M36.2549 206.031C35.1231 206.031 34.103 205.785 33.1946 205.294C32.2862 204.788 31.5714 204.103 31.0502 203.239C30.5438 202.375 30.2907 201.422 30.2907 200.38C30.2907 199.307 30.5513 198.339 31.0725 197.476C31.6086 196.597 32.3383 195.905 33.2616 195.398C34.1849 194.892 35.2199 194.639 36.3666 194.639C37.4984 194.639 38.5185 194.892 39.4269 195.398C40.3353 195.89 41.0427 196.567 41.549 197.431C42.0703 198.295 42.3309 199.248 42.3309 200.29C42.3309 201.362 42.0628 202.338 41.5267 203.217C41.0055 204.08 40.2832 204.765 39.3599 205.272C38.4366 205.778 37.4016 206.031 36.2549 206.031ZM36.2996 205.093C37.2229 205.093 38.0569 204.884 38.8015 204.467C39.561 204.05 40.1566 203.485 40.5885 202.77C41.0204 202.04 41.2363 201.228 41.2363 200.335C41.2363 199.441 41.0204 198.637 40.5885 197.922C40.1715 197.193 39.5833 196.619 38.8238 196.202C38.0792 195.785 37.2452 195.577 36.3219 195.577C35.3986 195.577 34.5572 195.785 33.7977 196.202C33.0531 196.619 32.4649 197.193 32.033 197.922C31.6012 198.637 31.3852 199.441 31.3852 200.335C31.3852 201.228 31.5937 202.04 32.0107 202.77C32.4426 203.485 33.0308 204.05 33.7754 204.467C34.5349 204.884 35.3763 205.093 36.2996 205.093Z" fill="#A2E248"/>
<path d="M52.0763 206.031C50.9297 206.031 49.8947 205.785 48.9714 205.294C48.0629 204.788 47.3481 204.103 46.8269 203.239C46.3057 202.375 46.0451 201.422 46.0451 200.38C46.0451 199.307 46.3057 198.339 46.8269 197.476C47.363 196.597 48.0927 195.905 49.016 195.398C49.9393 194.892 50.9743 194.639 52.121 194.639C53.5358 194.639 54.7495 195.018 55.7621 195.778C56.7897 196.523 57.5268 197.498 57.9736 198.704L56.9237 199.263C56.6258 198.146 56.0451 197.252 55.1813 196.582C54.3325 195.912 53.2975 195.577 52.0763 195.577C51.153 195.577 50.3116 195.785 49.5521 196.202C48.8075 196.619 48.2193 197.193 47.7874 197.922C47.3556 198.637 47.1396 199.441 47.1396 200.335C47.1396 201.228 47.3481 202.04 47.7651 202.77C48.197 203.485 48.7852 204.05 49.5298 204.467C50.2893 204.884 51.1381 205.093 52.0763 205.093C53.3719 205.093 54.4293 204.758 55.2483 204.088C56.0674 203.418 56.6258 202.524 56.9237 201.407L57.9736 201.966C57.5119 203.202 56.7822 204.192 55.7845 204.937C54.8016 205.666 53.5655 206.031 52.0763 206.031Z" fill="#A2E248"/>
<path d="M75.5628 204.87V205.808H74.3119C73.4482 205.808 72.845 205.622 72.5025 205.249C72.16 204.862 71.9888 204.244 71.9888 203.395H71.8994C71.4377 204.274 70.7602 204.937 69.8666 205.383C68.988 205.815 67.9381 206.031 66.717 206.031C65.2278 206.031 64.0737 205.733 63.2546 205.138C62.4504 204.542 62.0483 203.73 62.0483 202.703C62.0483 201.705 62.3983 200.945 63.0982 200.424C63.7981 199.888 64.9225 199.546 66.4713 199.397L70.3134 199.039C70.8644 198.995 71.2665 198.89 71.5196 198.727C71.7877 198.563 71.9217 198.302 71.9217 197.945C71.9217 197.29 71.5941 196.731 70.9389 196.269C70.2985 195.808 69.2859 195.577 67.9009 195.577C66.5755 195.577 65.5405 195.808 64.7959 196.269C64.0662 196.716 63.545 197.401 63.2323 198.325L62.2494 197.878C63.0982 195.718 64.997 194.639 67.9456 194.639C69.1071 194.639 70.0677 194.795 70.8272 195.108C71.5867 195.406 72.1377 195.808 72.4802 196.314C72.8376 196.806 73.0089 197.334 72.994 197.9L72.9493 203.239C72.9493 203.686 72.9865 204.021 73.061 204.244C73.1354 204.467 73.2769 204.631 73.4854 204.736C73.7088 204.825 74.0364 204.87 74.4683 204.87H75.5628ZM66.7617 205.093C67.5956 205.093 68.3849 204.959 69.1295 204.691C69.889 204.408 70.5144 203.998 71.0059 203.462C71.5122 202.911 71.81 202.241 71.8994 201.452L71.9217 199.486C71.7579 199.62 71.5197 199.732 71.2069 199.821C70.8942 199.896 70.4698 199.955 69.9337 200L66.5606 200.313C65.2799 200.432 64.3864 200.677 63.8801 201.05C63.3886 201.422 63.1429 201.958 63.1429 202.658C63.1429 203.373 63.4482 203.961 64.0588 204.423C64.6693 204.87 65.5703 205.093 66.7617 205.093Z" fill="#A2E248"/>
<path d="M85.7004 195.8H80.8084V203.015C80.8084 203.671 80.9276 204.147 81.1658 204.445C81.419 204.728 81.8583 204.87 82.4838 204.87H85.4324V205.808H82.4168C81.5381 205.808 80.868 205.584 80.4063 205.138C79.9596 204.676 79.7362 204.006 79.7362 203.127V195.8H76.5865V194.862H79.0661C79.349 194.862 79.5277 194.825 79.6022 194.75C79.6915 194.661 79.7362 194.475 79.7362 194.192V191.735H80.8084V194.862H85.7004V195.8Z" fill="#A2E248"/>
<path d="M90.7595 205.808H89.6873V194.862H90.7595V205.808ZM90.7818 192.628H89.6649V190.395H90.7818V192.628Z" fill="#A2E248"/>
<path d="M101.371 206.031C100.239 206.031 99.2192 205.785 98.3108 205.294C97.4024 204.788 96.6875 204.103 96.1663 203.239C95.66 202.375 95.4068 201.422 95.4068 200.38C95.4068 199.307 95.6674 198.339 96.1887 197.476C96.7248 196.597 97.4545 195.905 98.3778 195.398C99.3011 194.892 100.336 194.639 101.483 194.639C102.615 194.639 103.635 194.892 104.543 195.398C105.451 195.89 106.159 196.567 106.665 197.431C107.186 198.295 107.447 199.248 107.447 200.29C107.447 201.362 107.179 202.338 106.643 203.217C106.122 204.08 105.399 204.765 104.476 205.272C103.553 205.778 102.518 206.031 101.371 206.031ZM101.416 205.093C102.339 205.093 103.173 204.884 103.918 204.467C104.677 204.05 105.273 203.485 105.705 202.77C106.137 202.04 106.352 201.228 106.352 200.335C106.352 199.441 106.137 198.637 105.705 197.922C105.288 197.193 104.699 196.619 103.94 196.202C103.195 195.785 102.361 195.577 101.438 195.577C100.515 195.577 99.6734 195.785 98.9139 196.202C98.1693 196.619 97.5811 197.193 97.1492 197.922C96.7173 198.637 96.5014 199.441 96.5014 200.335C96.5014 201.228 96.7099 202.04 97.1269 202.77C97.5587 203.485 98.147 204.05 98.8916 204.467C99.651 204.884 100.492 205.093 101.416 205.093Z" fill="#A2E248"/>
<path d="M117.907 194.639C119.679 194.639 120.975 195.056 121.794 195.89C122.613 196.709 123.023 197.975 123.023 199.687V205.808H121.95V199.911C121.95 198.332 121.63 197.215 120.99 196.56C120.364 195.905 119.3 195.577 117.796 195.577C116.247 195.577 115.085 195.994 114.311 196.828C113.551 197.662 113.172 198.719 113.172 200V205.808H112.099V194.862H112.948V197.297H113.06C113.447 196.448 114.043 195.793 114.847 195.331C115.666 194.87 116.686 194.639 117.907 194.639Z" fill="#A2E248"/>
<path d="M129.672 205.808H128.376V203.462H129.672V205.808ZM129.672 199.441H128.376V197.096H129.672V199.441Z" fill="#A2E248"/>
<path d="M52.0021 253.276C50.8555 253.276 49.8205 253.031 48.8972 252.539C47.9888 252.033 47.2739 251.348 46.7527 250.484C46.2315 249.62 45.9709 248.667 45.9709 247.625C45.9709 246.553 46.2315 245.585 46.7527 244.721C47.2888 243.842 48.0185 243.15 48.9418 242.643C49.8651 242.137 50.9001 241.884 52.0468 241.884C53.4616 241.884 54.6753 242.264 55.6879 243.023C56.7155 243.768 57.4526 244.743 57.8994 245.949L56.8495 246.508C56.5517 245.391 55.9709 244.497 55.1071 243.827C54.2583 243.157 53.2233 242.822 52.0021 242.822C51.0788 242.822 50.2374 243.031 49.478 243.448C48.7334 243.865 48.1451 244.438 47.7133 245.168C47.2814 245.882 47.0654 246.687 47.0654 247.58C47.0654 248.474 47.2739 249.285 47.6909 250.015C48.1228 250.73 48.711 251.296 49.4556 251.713C50.2151 252.13 51.064 252.338 52.0021 252.338C53.2978 252.338 54.3551 252.003 55.1741 251.333C55.9932 250.663 56.5517 249.769 56.8495 248.652L57.8994 249.211C57.4377 250.447 56.708 251.437 55.7103 252.182C54.7274 252.911 53.4913 253.276 52.0021 253.276Z" fill="#A2E248"/>
<path d="M67.5586 253.276C66.4269 253.276 65.4067 253.031 64.4983 252.539C63.5899 252.033 62.8751 251.348 62.3539 250.484C61.8476 249.62 61.5944 248.667 61.5944 247.625C61.5944 246.553 61.855 245.585 62.3762 244.721C62.9123 243.842 63.642 243.15 64.5654 242.643C65.4887 242.137 66.5237 241.884 67.6703 241.884C68.8021 241.884 69.8222 242.137 70.7306 242.643C71.6391 243.135 72.3464 243.812 72.8528 244.676C73.374 245.54 73.6346 246.493 73.6346 247.535C73.6346 248.608 73.3665 249.583 72.8304 250.462C72.3092 251.325 71.5869 252.01 70.6636 252.517C69.7403 253.023 68.7053 253.276 67.5586 253.276ZM67.6033 252.338C68.5266 252.338 69.3606 252.13 70.1052 251.713C70.8647 251.296 71.4603 250.73 71.8922 250.015C72.3241 249.285 72.54 248.474 72.54 247.58C72.54 246.687 72.3241 245.882 71.8922 245.168C71.4752 244.438 70.887 243.865 70.1275 243.448C69.3829 243.031 68.549 242.822 67.6257 242.822C66.7024 242.822 65.861 243.031 65.1015 243.448C64.3569 243.865 63.7686 244.438 63.3368 245.168C62.9049 245.882 62.689 246.687 62.689 247.58C62.689 248.474 62.8974 249.285 63.3144 250.015C63.7463 250.73 64.3345 251.296 65.0791 251.713C65.8386 252.13 66.68 252.338 67.6033 252.338Z" fill="#A2E248"/>
<path d="M87.736 242.107H88.8082V253.053H87.9593V250.618H87.8477C87.4605 251.467 86.8648 252.122 86.0606 252.584C85.2713 253.045 84.2885 253.276 83.112 253.276C81.3994 253.276 80.1336 252.867 79.3145 252.048C78.5104 251.214 78.1083 249.94 78.1083 248.228V242.107H79.1805V248.005C79.1805 249.568 79.4932 250.685 80.1187 251.355C80.7442 252.01 81.7792 252.338 83.2237 252.338C84.7278 252.338 85.8521 251.921 86.5967 251.087C87.3562 250.238 87.736 249.181 87.736 247.915V242.107Z" fill="#A2E248"/>
<path d="M100.198 241.884C101.97 241.884 103.266 242.301 104.085 243.135C104.904 243.954 105.314 245.22 105.314 246.932V253.053H104.241V247.156C104.241 245.577 103.921 244.46 103.281 243.805C102.655 243.15 101.591 242.822 100.087 242.822C98.5378 242.822 97.3763 243.239 96.6019 244.073C95.8424 244.907 95.4626 245.964 95.4626 247.245V253.053H94.3904V242.107H95.2393V244.542H95.351C95.7381 243.693 96.3338 243.038 97.138 242.576C97.9571 242.115 98.9772 241.884 100.198 241.884Z" fill="#A2E248"/>
<path d="M117.637 243.045H112.745V250.261C112.745 250.916 112.864 251.392 113.102 251.69C113.355 251.973 113.795 252.115 114.42 252.115H117.369V253.053H114.353C113.474 253.053 112.804 252.83 112.343 252.383C111.896 251.921 111.673 251.251 111.673 250.372V243.045H108.523V242.107H111.002C111.285 242.107 111.464 242.07 111.538 241.996C111.628 241.906 111.673 241.72 111.673 241.437V238.98H112.745V242.107H117.637V243.045Z" fill="#A2E248"/>
<path d="M127.968 242.107V243.023H126.694C125.324 243.023 124.312 243.477 123.656 244.386C123.016 245.279 122.696 246.508 122.696 248.072V253.053H121.624V242.107H122.472V244.9H122.562C123.247 243.038 124.639 242.107 126.739 242.107H127.968Z" fill="#A2E248"/>
<path d="M130.318 257.409V256.471H132.105C132.626 256.471 133.013 256.381 133.266 256.203C133.519 256.024 133.787 255.652 134.07 255.086L135.053 253.098L129.625 242.107H130.809L135.612 251.958H135.701L140.504 242.107H141.643L134.964 255.577C134.606 256.307 134.227 256.791 133.825 257.029C133.423 257.282 132.849 257.409 132.105 257.409H130.318Z" fill="#A2E248"/>
<path d="M146.465 253.053H145.169V250.707H146.465V253.053ZM146.465 246.687H145.169V244.341H146.465V246.687Z" fill="#A2E248"/>
<path d="M52.0021 300.521C50.8555 300.521 49.8205 300.275 48.8972 299.784C47.9888 299.277 47.2739 298.592 46.7527 297.729C46.2315 296.865 45.9709 295.912 45.9709 294.869C45.9709 293.797 46.2315 292.829 46.7527 291.965C47.2888 291.087 48.0185 290.394 48.9418 289.888C49.8651 289.382 50.9001 289.128 52.0468 289.128C53.4616 289.128 54.6753 289.508 55.6879 290.268C56.7155 291.012 57.4526 291.988 57.8994 293.194L56.8495 293.752C56.5517 292.636 55.9709 291.742 55.1071 291.072C54.2583 290.402 53.2233 290.067 52.0021 290.067C51.0788 290.067 50.2374 290.275 49.478 290.692C48.7334 291.109 48.1451 291.682 47.7133 292.412C47.2814 293.127 47.0654 293.931 47.0654 294.825C47.0654 295.718 47.2739 296.53 47.6909 297.26C48.1228 297.974 48.711 298.54 49.4556 298.957C50.2151 299.374 51.064 299.583 52.0021 299.583C53.2978 299.583 54.3551 299.248 55.1741 298.577C55.9932 297.907 56.5517 297.014 56.8495 295.897L57.8994 296.455C57.4377 297.691 56.708 298.682 55.7103 299.426C54.7274 300.156 53.4913 300.521 52.0021 300.521Z" fill="#A2E248"/>
<path d="M63.6048 300.298H62.5326V289.352H63.6048V300.298ZM63.6272 287.118H62.5103V284.884H63.6272V287.118Z" fill="#A2E248"/>
<path d="M76.1151 290.29H71.2231V297.505C71.2231 298.16 71.3423 298.637 71.5805 298.935C71.8337 299.218 72.273 299.359 72.8985 299.359H75.8471V300.298H72.8315C71.9528 300.298 71.2827 300.074 70.821 299.627C70.3743 299.166 70.1509 298.496 70.1509 297.617V290.29H67.0012V289.352H69.4808C69.7637 289.352 69.9424 289.315 70.0169 289.24C70.1062 289.151 70.1509 288.965 70.1509 288.682V286.225H71.2231V289.352H76.1151V290.29Z" fill="#A2E248"/>
<path d="M78.4734 304.653V303.715H80.2604C80.7816 303.715 81.1688 303.626 81.422 303.447C81.6752 303.268 81.9432 302.896 82.2262 302.33L83.209 300.342L77.7809 289.352H78.9648L83.7675 299.203H83.8568L88.6595 289.352H89.7987L83.1197 302.822C82.7623 303.551 82.3825 304.035 81.9804 304.274C81.5784 304.527 81.005 304.653 80.2604 304.653H78.4734Z" fill="#A2E248"/>
<path d="M94.6204 300.298H93.3248V297.952H94.6204V300.298ZM94.6204 293.931H93.3248V291.586H94.6204V293.931Z" fill="#A2E248"/>
<path d="M182.143 252.048V253.053H180.825C179.917 253.053 179.269 252.852 178.882 252.45C178.51 252.048 178.324 251.355 178.324 250.372V248.384C178.324 247.64 178.16 247.133 177.832 246.865C177.505 246.582 177.035 246.441 176.425 246.441H169.21V253.053H168.093V238.98H176.805C177.683 238.98 178.435 239.151 179.061 239.494C179.701 239.821 180.178 240.268 180.49 240.834C180.818 241.4 180.982 242.01 180.982 242.666C180.982 243.589 180.714 244.334 180.178 244.899C179.642 245.451 178.986 245.83 178.212 246.039V246.128C179.046 246.515 179.463 247.26 179.463 248.362V250.261C179.463 250.767 179.493 251.139 179.552 251.378C179.627 251.616 179.768 251.787 179.977 251.891C180.2 251.996 180.535 252.048 180.982 252.048H182.143ZM169.21 239.985V245.436H176.738C177.721 245.436 178.473 245.175 178.994 244.654C179.53 244.118 179.798 243.47 179.798 242.71C179.798 241.951 179.53 241.311 178.994 240.789C178.458 240.253 177.706 239.985 176.738 239.985H169.21Z" fill="white"/>
<path d="M195.62 242.107H196.692V253.053H195.843V250.618H195.732C195.344 251.467 194.749 252.122 193.945 252.584C193.155 253.045 192.172 253.276 190.996 253.276C189.283 253.276 188.018 252.867 187.198 252.048C186.394 251.214 185.992 249.94 185.992 248.228V242.107H187.064V248.004C187.064 249.568 187.377 250.685 188.003 251.355C188.628 252.01 189.663 252.338 191.108 252.338C192.612 252.338 193.736 251.921 194.481 251.087C195.24 250.238 195.62 249.181 195.62 247.915V242.107Z" fill="white"/>
<path d="M207.323 253.276C205.729 253.276 204.441 253.023 203.458 252.517C202.49 251.996 201.783 251.206 201.336 250.149L202.319 249.613C202.587 250.506 203.153 251.184 204.017 251.646C204.88 252.107 205.997 252.338 207.367 252.338C208.589 252.338 209.579 252.137 210.338 251.735C211.113 251.318 211.5 250.76 211.5 250.06C211.5 249.509 211.277 249.092 210.83 248.809C210.398 248.526 209.638 248.325 208.551 248.206L205.938 247.915C204.538 247.766 203.548 247.468 202.967 247.022C202.386 246.575 202.096 245.957 202.096 245.168C202.096 244.542 202.304 243.984 202.721 243.492C203.153 242.986 203.734 242.591 204.463 242.308C205.208 242.025 206.049 241.884 206.988 241.884C208.343 241.884 209.482 242.144 210.405 242.666C211.329 243.187 212.014 243.969 212.46 245.011L211.478 245.547C211.21 244.669 210.666 243.999 209.847 243.537C209.043 243.06 208.075 242.822 206.943 242.822C205.901 242.822 205.014 243.031 204.285 243.448C203.555 243.865 203.19 244.416 203.19 245.101C203.19 245.652 203.406 246.069 203.838 246.351C204.285 246.634 205.052 246.835 206.139 246.955L208.752 247.245C210.152 247.394 211.143 247.692 211.723 248.139C212.304 248.585 212.594 249.203 212.594 249.993C212.594 250.618 212.379 251.184 211.947 251.69C211.515 252.182 210.897 252.569 210.093 252.852C209.303 253.135 208.38 253.276 207.323 253.276Z" fill="white"/>
<path d="M222.445 253.276C220.851 253.276 219.563 253.023 218.58 252.517C217.612 251.996 216.905 251.206 216.458 250.149L217.441 249.613C217.709 250.506 218.275 251.184 219.138 251.646C220.002 252.107 221.119 252.338 222.489 252.338C223.71 252.338 224.701 252.137 225.46 251.735C226.235 251.318 226.622 250.76 226.622 250.06C226.622 249.509 226.398 249.092 225.952 248.809C225.52 248.526 224.76 248.325 223.673 248.206L221.06 247.915C219.66 247.766 218.669 247.468 218.089 247.022C217.508 246.575 217.217 245.957 217.217 245.168C217.217 244.542 217.426 243.984 217.843 243.492C218.275 242.986 218.856 242.591 219.585 242.308C220.33 242.025 221.171 241.884 222.109 241.884C223.465 241.884 224.604 242.144 225.527 242.666C226.45 243.187 227.135 243.969 227.582 245.011L226.599 245.547C226.331 244.669 225.788 243.999 224.969 243.537C224.165 243.06 223.197 242.822 222.065 242.822C221.022 242.822 220.136 243.031 219.407 243.448C218.677 243.865 218.312 244.416 218.312 245.101C218.312 245.652 218.528 246.069 218.96 246.351C219.407 246.634 220.173 246.835 221.261 246.955L223.874 247.245C225.274 247.394 226.264 247.692 226.845 248.139C227.426 248.585 227.716 249.203 227.716 249.993C227.716 250.618 227.5 251.184 227.068 251.69C226.637 252.182 226.019 252.569 225.214 252.852C224.425 253.135 223.502 253.276 222.445 253.276Z" fill="white"/>
<path d="M233.59 253.053H232.518V242.107H233.59V253.053ZM233.612 239.873H232.496V237.64H233.612V239.873Z" fill="white"/>
<path d="M252.132 252.115V253.053H250.881C250.017 253.053 249.414 252.867 249.071 252.494C248.729 252.107 248.558 251.489 248.558 250.64H248.468C248.007 251.519 247.329 252.182 246.436 252.628C245.557 253.06 244.507 253.276 243.286 253.276C241.797 253.276 240.643 252.978 239.823 252.383C239.019 251.787 238.617 250.975 238.617 249.948C238.617 248.95 238.967 248.191 239.667 247.669C240.367 247.133 241.491 246.791 243.04 246.642L246.882 246.284C247.433 246.24 247.835 246.136 248.089 245.972C248.357 245.808 248.491 245.547 248.491 245.19C248.491 244.535 248.163 243.976 247.508 243.515C246.867 243.053 245.855 242.822 244.47 242.822C243.144 242.822 242.109 243.053 241.365 243.515C240.635 243.961 240.114 244.646 239.801 245.57L238.818 245.123C239.667 242.964 241.566 241.884 244.514 241.884C245.676 241.884 246.637 242.04 247.396 242.353C248.156 242.651 248.707 243.053 249.049 243.559C249.406 244.051 249.578 244.579 249.563 245.145L249.518 250.484C249.518 250.931 249.555 251.266 249.63 251.489C249.704 251.713 249.846 251.876 250.054 251.981C250.278 252.07 250.605 252.115 251.037 252.115H252.132ZM243.331 252.338C244.164 252.338 244.954 252.204 245.698 251.936C246.458 251.653 247.083 251.243 247.575 250.707C248.081 250.156 248.379 249.486 248.468 248.697L248.491 246.731C248.327 246.865 248.089 246.977 247.776 247.066C247.463 247.141 247.039 247.2 246.503 247.245L243.13 247.558C241.849 247.677 240.955 247.923 240.449 248.295C239.958 248.667 239.712 249.203 239.712 249.903C239.712 250.618 240.017 251.206 240.628 251.668C241.238 252.115 242.139 252.338 243.331 252.338Z" fill="white"/>
<path d="M255.412 255.287V254.527H256.06C256.313 254.527 256.485 254.483 256.574 254.393C256.663 254.304 256.708 254.133 256.708 253.879V253.053H256.194V250.707H257.49V253.924C257.49 254.832 257.028 255.287 256.105 255.287H255.412Z" fill="white"/>
<path d="M128.778 299.293V286.225H129.895V300.298H128.063L117.475 287.23H117.386V300.298H116.269V286.225H118.1L128.711 299.293H128.778Z" fill="white"/>
<path d="M140.943 300.521C139.812 300.521 138.791 300.276 137.883 299.784C136.975 299.278 136.26 298.593 135.739 297.729C135.232 296.865 134.979 295.912 134.979 294.87C134.979 293.798 135.24 292.83 135.761 291.966C136.297 291.087 137.027 290.395 137.95 289.888C138.873 289.382 139.908 289.129 141.055 289.129C142.187 289.129 143.207 289.382 144.115 289.888C145.024 290.38 145.731 291.057 146.237 291.921C146.759 292.785 147.019 293.738 147.019 294.78C147.019 295.853 146.751 296.828 146.215 297.707C145.694 298.57 144.972 299.256 144.048 299.762C143.125 300.268 142.09 300.521 140.943 300.521ZM140.988 299.583C141.911 299.583 142.745 299.375 143.49 298.958C144.249 298.541 144.845 297.975 145.277 297.26C145.709 296.53 145.925 295.719 145.925 294.825C145.925 293.932 145.709 293.127 145.277 292.413C144.86 291.683 144.272 291.11 143.512 290.693C142.768 290.276 141.934 290.067 141.01 290.067C140.087 290.067 139.246 290.276 138.486 290.693C137.742 291.11 137.153 291.683 136.721 292.413C136.29 293.127 136.074 293.932 136.074 294.825C136.074 295.719 136.282 296.53 136.699 297.26C137.131 297.975 137.719 298.541 138.464 298.958C139.223 299.375 140.065 299.583 140.988 299.583Z" fill="white"/>
<path d="M155.591 300.298H154.43L149.002 289.352H150.186L154.988 299.203H155.078L159.88 289.352H161.019L155.591 300.298Z" fill="white"/>
<path d="M168.962 300.521C167.83 300.521 166.81 300.276 165.902 299.784C164.993 299.278 164.278 298.593 163.757 297.729C163.251 296.865 162.998 295.912 162.998 294.87C162.998 293.798 163.258 292.83 163.779 291.966C164.316 291.087 165.045 290.395 165.969 289.888C166.892 289.382 167.927 289.129 169.074 289.129C170.205 289.129 171.225 289.382 172.134 289.888C173.042 290.38 173.75 291.057 174.256 291.921C174.777 292.785 175.038 293.738 175.038 294.78C175.038 295.853 174.77 296.828 174.234 297.707C173.712 298.57 172.99 299.256 172.067 299.762C171.144 300.268 170.109 300.521 168.962 300.521ZM169.007 299.583C169.93 299.583 170.764 299.375 171.508 298.958C172.268 298.541 172.864 297.975 173.295 297.26C173.727 296.53 173.943 295.719 173.943 294.825C173.943 293.932 173.727 293.127 173.295 292.413C172.878 291.683 172.29 291.11 171.531 290.693C170.786 290.276 169.952 290.067 169.029 290.067C168.106 290.067 167.264 290.276 166.505 290.693C165.76 291.11 165.172 291.683 164.74 292.413C164.308 293.127 164.092 293.932 164.092 294.825C164.092 295.719 164.301 296.53 164.718 297.26C165.15 297.975 165.738 298.541 166.482 298.958C167.242 299.375 168.083 299.583 169.007 299.583Z" fill="white"/>
<path d="M184.739 300.521C183.145 300.521 181.857 300.268 180.874 299.762C179.906 299.241 179.199 298.451 178.752 297.394L179.735 296.858C180.003 297.751 180.569 298.429 181.433 298.891C182.296 299.352 183.413 299.583 184.783 299.583C186.004 299.583 186.995 299.382 187.754 298.98C188.529 298.563 188.916 298.005 188.916 297.305C188.916 296.754 188.692 296.337 188.246 296.054C187.814 295.771 187.054 295.57 185.967 295.451L183.354 295.16C181.954 295.011 180.963 294.713 180.383 294.267C179.802 293.82 179.512 293.202 179.512 292.413C179.512 291.787 179.72 291.229 180.137 290.737C180.569 290.231 181.15 289.836 181.879 289.553C182.624 289.27 183.465 289.129 184.404 289.129C185.759 289.129 186.898 289.39 187.821 289.911C188.745 290.432 189.43 291.214 189.876 292.256L188.893 292.792C188.625 291.914 188.082 291.244 187.263 290.782C186.459 290.305 185.491 290.067 184.359 290.067C183.316 290.067 182.43 290.276 181.701 290.693C180.971 291.11 180.606 291.661 180.606 292.346C180.606 292.897 180.822 293.314 181.254 293.597C181.701 293.88 182.468 294.081 183.555 294.2L186.168 294.49C187.568 294.639 188.558 294.937 189.139 295.384C189.72 295.83 190.01 296.448 190.01 297.238C190.01 297.863 189.794 298.429 189.363 298.935C188.931 299.427 188.313 299.814 187.509 300.097C186.719 300.38 185.796 300.521 184.739 300.521Z" fill="white"/>
<path d="M195.884 300.298H194.812V289.352H195.884V300.298ZM195.907 287.119H194.79V284.885H195.907V287.119Z" fill="white"/>
<path d="M207.412 289.129C208.514 289.129 209.511 289.382 210.405 289.888C211.298 290.38 211.998 291.057 212.505 291.921C213.026 292.785 213.287 293.738 213.287 294.78C213.287 295.853 213.026 296.828 212.505 297.707C211.984 298.57 211.261 299.256 210.338 299.762C209.43 300.268 208.417 300.521 207.3 300.521C206.287 300.521 205.342 300.298 204.463 299.851C203.584 299.39 202.907 298.727 202.43 297.863H202.319V300.298H201.47V284.438H202.542V287.275C202.542 288.183 202.527 289.68 202.497 291.765C202.989 290.901 203.674 290.246 204.552 289.799C205.446 289.352 206.399 289.129 207.412 289.129ZM207.345 299.583C208.238 299.583 209.057 299.375 209.802 298.958C210.546 298.541 211.127 297.975 211.544 297.26C211.976 296.53 212.192 295.719 212.192 294.825C212.192 293.932 211.976 293.127 211.544 292.413C211.127 291.683 210.546 291.11 209.802 290.693C209.072 290.276 208.261 290.067 207.367 290.067C206.473 290.067 205.654 290.268 204.91 290.67C204.18 291.072 203.599 291.616 203.167 292.301C202.75 292.971 202.542 293.701 202.542 294.49V295.16C202.542 295.95 202.75 296.687 203.167 297.372C203.599 298.042 204.18 298.578 204.91 298.98C205.64 299.382 206.451 299.583 207.345 299.583Z" fill="white"/>
<path d="M218.994 300.298H217.922V289.352H218.994V300.298ZM219.017 287.119H217.9V284.885H219.017V287.119Z" fill="white"/>
<path d="M230.924 289.352V290.268H229.651C228.281 290.268 227.268 290.722 226.613 291.631C225.972 292.524 225.652 293.753 225.652 295.317V300.298H224.58V289.352H225.429V292.145H225.518C226.203 290.283 227.596 289.352 229.695 289.352H230.924Z" fill="white"/>
<path d="M238.882 300.521C237.289 300.521 236 300.268 235.018 299.762C234.05 299.241 233.342 298.451 232.895 297.394L233.878 296.858C234.146 297.751 234.712 298.429 235.576 298.891C236.44 299.352 237.557 299.583 238.927 299.583C240.148 299.583 241.138 299.382 241.898 298.98C242.672 298.563 243.059 298.005 243.059 297.305C243.059 296.754 242.836 296.337 242.389 296.054C241.957 295.771 241.198 295.57 240.111 295.451L237.497 295.16C236.097 295.011 235.107 294.713 234.526 294.267C233.945 293.82 233.655 293.202 233.655 292.413C233.655 291.787 233.863 291.229 234.28 290.737C234.712 290.231 235.293 289.836 236.023 289.553C236.767 289.27 237.609 289.129 238.547 289.129C239.902 289.129 241.041 289.39 241.965 289.911C242.888 290.432 243.573 291.214 244.02 292.256L243.037 292.792C242.769 291.914 242.225 291.244 241.406 290.782C240.602 290.305 239.634 290.067 238.502 290.067C237.46 290.067 236.574 290.276 235.844 290.693C235.114 291.11 234.75 291.661 234.75 292.346C234.75 292.897 234.965 293.314 235.397 293.597C235.844 293.88 236.611 294.081 237.698 294.2L240.312 294.49C241.712 294.639 242.702 294.937 243.283 295.384C243.863 295.83 244.154 296.448 244.154 297.238C244.154 297.863 243.938 298.429 243.506 298.935C243.074 299.427 242.456 299.814 241.652 300.097C240.863 300.38 239.939 300.521 238.882 300.521Z" fill="white"/>
<path d="M259.879 300.298H258.538L253.378 293.865L250.028 296.478V300.298H248.955V284.438H250.028V295.294L257.824 289.352H259.276L254.227 293.261L259.879 300.298Z" fill="white"/>
<path d="M263.338 302.532V301.772H263.986C264.239 301.772 264.41 301.728 264.5 301.638C264.589 301.549 264.634 301.378 264.634 301.124V300.298H264.12V297.952H265.415V301.169C265.415 302.078 264.954 302.532 264.03 302.532H263.338Z" fill="white"/>
<path d="M30.6024 341.311V342.271H29.4855C28.9791 342.271 28.5919 342.346 28.3239 342.494C28.0558 342.643 27.8548 342.919 27.7208 343.321C27.5867 343.708 27.4825 344.296 27.408 345.086L27.0953 348.325C26.9613 349.665 26.6262 350.633 26.0901 351.229C25.554 351.824 24.8168 352.122 23.8786 352.122H22.7394V351.162H23.8116C24.4817 351.162 24.9881 350.938 25.3306 350.491C25.688 350.045 25.9188 349.226 26.0231 348.034L26.2911 345.086C26.3805 344.028 26.5592 343.261 26.8272 342.785C27.0953 342.308 27.475 341.988 27.9665 341.824V341.735C27.475 341.571 27.0953 341.251 26.8272 340.774C26.5592 340.298 26.3805 339.538 26.2911 338.496L26.0231 335.547C25.9188 334.356 25.688 333.537 25.3306 333.09C24.9881 332.643 24.4817 332.42 23.8116 332.42H22.7394V331.459H23.8786C24.8615 331.459 25.6061 331.75 26.1124 332.331C26.6336 332.897 26.9613 333.872 27.0953 335.257L27.408 338.496C27.4825 339.285 27.5867 339.873 27.7208 340.261C27.8548 340.648 28.0558 340.923 28.3239 341.087C28.5919 341.236 28.9791 341.311 29.4855 341.311H30.6024Z" fill="white"/>
<path d="M33.9799 349.777V349.017H34.6277C34.8809 349.017 35.0522 348.972 35.1415 348.883C35.2309 348.794 35.2755 348.623 35.2755 348.369V347.543H34.7618V345.197H36.0574V348.414C36.0574 349.322 35.5957 349.777 34.6724 349.777H33.9799Z" fill="white"/>
<path d="M8.26434 435.8V436.761H7.14744C6.64112 436.761 6.25392 436.835 5.98587 436.984C5.71781 437.133 5.51677 437.409 5.38274 437.811C5.24871 438.198 5.14447 438.786 5.07001 439.575L4.75728 442.814C4.62325 444.155 4.28818 445.123 3.75207 445.718C3.21596 446.314 2.4788 446.612 1.54061 446.612H0.401367V445.651H1.47359C2.14373 445.651 2.65006 445.428 2.99258 444.981C3.34998 444.534 3.58081 443.715 3.68505 442.524L3.95311 439.575C4.04246 438.518 4.22117 437.751 4.48922 437.275C4.75728 436.798 5.13702 436.478 5.62846 436.314V436.225C5.13702 436.061 4.75728 435.741 4.48922 435.264C4.22117 434.788 4.04246 434.028 3.95311 432.986L3.68505 430.037C3.58081 428.846 3.34998 428.027 2.99258 427.58C2.65006 427.133 2.14373 426.91 1.47359 426.91H0.401367V425.949H1.54061C2.52348 425.949 3.26808 426.24 3.77441 426.82C4.29563 427.386 4.62325 428.362 4.75728 429.747L5.07001 432.986C5.14447 433.775 5.24871 434.363 5.38274 434.75C5.51677 435.138 5.71781 435.413 5.98587 435.577C6.25392 435.726 6.64112 435.8 7.14744 435.8H8.26434Z" fill="white"/>
<path d="M183.35 50.0004C184.854 50.0004 186.179 50.2908 187.326 50.8716C188.472 51.4524 189.359 52.2715 189.984 53.3288C190.609 54.3712 190.922 55.5924 190.922 56.9922C190.922 58.3921 190.595 59.6281 189.939 60.7003C189.299 61.7726 188.398 62.6065 187.236 63.2022C186.075 63.783 184.749 64.0734 183.26 64.0734H176.916V50.0004H183.35ZM183.305 63.0682C184.586 63.0682 185.71 62.8299 186.678 62.3534C187.646 61.8619 188.398 61.162 188.934 60.2536C189.47 59.3452 189.738 58.2729 189.738 57.0369C189.738 55.8009 189.47 54.7286 188.934 53.8202C188.398 52.9118 187.646 52.2193 186.678 51.7428C185.71 51.2514 184.586 51.0056 183.305 51.0056H178.033V63.0682H183.305Z" fill="white"/>
<path d="M201.05 63.3586C202.256 63.3586 203.232 63.1054 203.976 62.5991C204.736 62.0779 205.264 61.3928 205.562 60.544L206.545 61.0577C206.083 62.0853 205.376 62.882 204.423 63.4479C203.485 64.0138 202.338 64.2968 200.983 64.2968C199.777 64.2968 198.712 64.051 197.789 63.5596C196.88 63.0533 196.173 62.3682 195.666 61.5045C195.16 60.6408 194.907 59.6877 194.907 58.6452C194.907 57.573 195.168 56.605 195.689 55.7413C196.21 54.8627 196.925 54.1702 197.833 53.6639C198.756 53.1575 199.777 52.9044 200.893 52.9044C201.995 52.9044 202.993 53.1575 203.887 53.6639C204.78 54.1702 205.48 54.8552 205.987 55.719C206.508 56.5827 206.768 57.5358 206.768 58.5782H196.001V58.6006C196.001 59.4941 196.21 60.3057 196.627 61.0354C197.044 61.7502 197.632 62.3161 198.392 62.7331C199.151 63.1501 200.037 63.3586 201.05 63.3586ZM200.849 53.8426C199.657 53.8426 198.615 54.2 197.721 54.9148C196.843 55.6296 196.299 56.5455 196.091 57.6624H205.584C205.361 56.5455 204.818 55.6296 203.954 54.9148C203.09 54.2 202.055 53.8426 200.849 53.8426Z" fill="white"/>
<path d="M217.167 52.9044C218.94 52.9044 220.235 53.3214 221.054 54.1553C221.873 54.9744 222.283 56.2402 222.283 57.9528V64.0734H221.211V58.1761C221.211 56.5976 220.89 55.4807 220.25 54.8254C219.625 54.1702 218.56 53.8426 217.056 53.8426C215.507 53.8426 214.345 54.2595 213.571 55.0935C212.812 55.9275 212.432 56.9848 212.432 58.2655V64.0734H211.36V53.1278H212.208V55.5626H212.32C212.707 54.7138 213.303 54.0585 214.107 53.5969C214.926 53.1352 215.946 52.9044 217.167 52.9044Z" fill="white"/>
<path d="M228.753 64.0734H227.681V53.1278H228.753V64.0734ZM228.776 50.894H227.659V48.6602H228.776V50.894Z" fill="white"/>
<path d="M239.387 64.2968C237.794 64.2968 236.506 64.0436 235.523 63.5373C234.555 63.016 233.847 62.2268 233.401 61.1694L234.384 60.6333C234.652 61.5268 235.218 62.2044 236.081 62.6661C236.945 63.1277 238.062 63.3586 239.432 63.3586C240.653 63.3586 241.643 63.1575 242.403 62.7554C243.177 62.3385 243.564 61.78 243.564 61.0801C243.564 60.5291 243.341 60.1121 242.894 59.8292C242.462 59.5462 241.703 59.3452 240.616 59.226L238.002 58.9356C236.602 58.7867 235.612 58.4889 235.031 58.0421C234.451 57.5954 234.16 56.9773 234.16 56.1881C234.16 55.5626 234.369 55.0041 234.786 54.5127C235.218 54.0064 235.798 53.6117 236.528 53.3288C237.273 53.0459 238.114 52.9044 239.052 52.9044C240.407 52.9044 241.547 53.165 242.47 53.6862C243.393 54.2074 244.078 54.9893 244.525 56.0317L243.542 56.5678C243.274 55.6892 242.731 55.019 241.911 54.5574C241.107 54.0808 240.139 53.8426 239.008 53.8426C237.965 53.8426 237.079 54.0511 236.349 54.468C235.62 54.885 235.255 55.436 235.255 56.121C235.255 56.6721 235.471 57.089 235.903 57.372C236.349 57.6549 237.116 57.856 238.203 57.9751L240.817 58.2655C242.217 58.4144 243.207 58.7123 243.788 59.159C244.369 59.6058 244.659 60.2238 244.659 61.0131C244.659 61.6385 244.443 62.2044 244.011 62.7108C243.579 63.2022 242.961 63.5894 242.157 63.8723C241.368 64.1553 240.445 64.2968 239.387 64.2968Z" fill="white"/>
<path d="M248.634 66.3072V65.5477H249.282C249.535 65.5477 249.706 65.503 249.796 65.4137C249.885 65.3243 249.93 65.153 249.93 64.8999V64.0734H249.416V61.7279H250.712V64.9446C250.712 65.853 250.25 66.3072 249.327 66.3072H248.634Z" fill="white"/>
<path d="M183.975 97.2455H185.204L178.726 106.158V111.318H177.609V106.158L171.131 97.2455H172.426L178.145 105.086H178.234L183.975 97.2455Z" fill="white"/>
<path d="M199.966 110.38V111.318H198.715C197.852 111.318 197.248 111.132 196.906 110.76C196.563 110.373 196.392 109.755 196.392 108.906H196.303C195.841 109.785 195.164 110.447 194.27 110.894C193.391 111.326 192.342 111.542 191.12 111.542C189.631 111.542 188.477 111.244 187.658 110.648C186.854 110.053 186.452 109.241 186.452 108.213C186.452 107.216 186.802 106.456 187.502 105.935C188.202 105.399 189.326 105.056 190.875 104.907L194.717 104.55C195.268 104.505 195.67 104.401 195.923 104.237C196.191 104.074 196.325 103.813 196.325 103.456C196.325 102.8 195.998 102.242 195.342 101.78C194.702 101.318 193.689 101.088 192.304 101.088C190.979 101.088 189.944 101.318 189.199 101.78C188.47 102.227 187.948 102.912 187.636 103.835L186.653 103.388C187.502 101.229 189.4 100.149 192.349 100.149C193.511 100.149 194.471 100.306 195.231 100.619C195.99 100.916 196.541 101.318 196.884 101.825C197.241 102.316 197.412 102.845 197.397 103.411L197.353 108.75C197.353 109.196 197.39 109.531 197.464 109.755C197.539 109.978 197.68 110.142 197.889 110.246C198.112 110.336 198.44 110.38 198.872 110.38H199.966ZM191.165 110.604C191.999 110.604 192.788 110.47 193.533 110.202C194.292 109.919 194.918 109.509 195.409 108.973C195.916 108.422 196.213 107.752 196.303 106.963L196.325 104.997C196.161 105.131 195.923 105.243 195.61 105.332C195.298 105.406 194.873 105.466 194.337 105.511L190.964 105.823C189.683 105.942 188.79 106.188 188.284 106.56C187.792 106.933 187.546 107.469 187.546 108.169C187.546 108.884 187.852 109.472 188.462 109.934C189.073 110.38 189.974 110.604 191.165 110.604Z" fill="white"/>
<path d="M208.227 111.542C206.634 111.542 205.346 111.289 204.363 110.782C203.395 110.261 202.688 109.472 202.241 108.415L203.224 107.878C203.492 108.772 204.058 109.45 204.921 109.911C205.785 110.373 206.902 110.604 208.272 110.604C209.493 110.604 210.484 110.403 211.243 110.001C212.018 109.584 212.405 109.025 212.405 108.325C212.405 107.774 212.181 107.357 211.735 107.074C211.303 106.791 210.543 106.59 209.456 106.471L206.843 106.181C205.443 106.032 204.452 105.734 203.872 105.287C203.291 104.84 203 104.222 203 103.433C203 102.808 203.209 102.249 203.626 101.758C204.058 101.251 204.639 100.857 205.368 100.574C206.113 100.291 206.954 100.149 207.892 100.149C209.248 100.149 210.387 100.41 211.31 100.931C212.233 101.453 212.918 102.234 213.365 103.277L212.382 103.813C212.114 102.934 211.571 102.264 210.752 101.802C209.948 101.326 208.98 101.088 207.848 101.088C206.805 101.088 205.919 101.296 205.19 101.713C204.46 102.13 204.095 102.681 204.095 103.366C204.095 103.917 204.311 104.334 204.743 104.617C205.19 104.9 205.956 105.101 207.044 105.22L209.657 105.511C211.057 105.66 212.047 105.957 212.628 106.404C213.209 106.851 213.499 107.469 213.499 108.258C213.499 108.884 213.283 109.45 212.851 109.956C212.42 110.447 211.802 110.834 210.997 111.117C210.208 111.4 209.285 111.542 208.227 111.542Z" fill="white"/>
<path d="M225.226 101.311H220.334V108.526C220.334 109.181 220.453 109.658 220.691 109.956C220.944 110.239 221.384 110.38 222.009 110.38H224.958V111.318H221.942C221.063 111.318 220.393 111.095 219.932 110.648C219.485 110.187 219.261 109.517 219.261 108.638V101.311H216.112V100.373H218.591C218.874 100.373 219.053 100.336 219.127 100.261C219.217 100.172 219.261 99.9857 219.261 99.7027V97.2455H220.334V100.373H225.226V101.311Z" fill="white"/>
<path d="M235.556 100.373V101.289H234.283C232.913 101.289 231.9 101.743 231.245 102.651C230.605 103.545 230.285 104.773 230.285 106.337V111.318H229.212V100.373H230.061V103.165H230.151C230.836 101.304 232.228 100.373 234.328 100.373H235.556Z" fill="white"/>
<path d="M244.02 110.604C245.226 110.604 246.202 110.35 246.946 109.844C247.706 109.323 248.234 108.638 248.532 107.789L249.515 108.303C249.053 109.33 248.346 110.127 247.393 110.693C246.455 111.259 245.308 111.542 243.953 111.542C242.747 111.542 241.682 111.296 240.759 110.805C239.85 110.298 239.143 109.613 238.637 108.75C238.13 107.886 237.877 106.933 237.877 105.89C237.877 104.818 238.138 103.85 238.659 102.986C239.18 102.108 239.895 101.415 240.803 100.909C241.727 100.403 242.747 100.149 243.864 100.149C244.966 100.149 245.963 100.403 246.857 100.909C247.75 101.415 248.45 102.1 248.957 102.964C249.478 103.828 249.738 104.781 249.738 105.823H238.972V105.846C238.972 106.739 239.18 107.551 239.597 108.281C240.014 108.995 240.602 109.561 241.362 109.978C242.121 110.395 243.007 110.604 244.02 110.604ZM243.819 101.088C242.628 101.088 241.585 101.445 240.692 102.16C239.813 102.875 239.269 103.791 239.061 104.907H248.555C248.331 103.791 247.788 102.875 246.924 102.16C246.06 101.445 245.025 101.088 243.819 101.088Z" fill="white"/>
<path d="M260.272 100.149C261.374 100.149 262.371 100.403 263.265 100.909C264.158 101.4 264.858 102.078 265.365 102.942C265.886 103.805 266.146 104.759 266.146 105.801C266.146 106.873 265.886 107.849 265.365 108.727C264.843 109.591 264.121 110.276 263.198 110.782C262.289 111.289 261.277 111.542 260.16 111.542C259.147 111.542 258.202 111.318 257.323 110.872C256.444 110.41 255.767 109.747 255.29 108.884H255.178V111.318H254.33V95.4585H255.402V98.2954C255.402 99.2038 255.387 100.7 255.357 102.785C255.849 101.922 256.534 101.266 257.412 100.82C258.306 100.373 259.259 100.149 260.272 100.149ZM260.205 110.604C261.098 110.604 261.917 110.395 262.662 109.978C263.406 109.561 263.987 108.995 264.404 108.281C264.836 107.551 265.052 106.739 265.052 105.846C265.052 104.952 264.836 104.148 264.404 103.433C263.987 102.703 263.406 102.13 262.662 101.713C261.932 101.296 261.12 101.088 260.227 101.088C259.333 101.088 258.514 101.289 257.77 101.691C257.04 102.093 256.459 102.636 256.027 103.321C255.61 103.992 255.402 104.721 255.402 105.511V106.181C255.402 106.97 255.61 107.707 256.027 108.392C256.459 109.062 257.04 109.598 257.77 110.001C258.499 110.403 259.311 110.604 260.205 110.604Z" fill="white"/>
<path d="M275.808 111.542C274.676 111.542 273.656 111.296 272.748 110.805C271.839 110.298 271.125 109.613 270.603 108.75C270.097 107.886 269.844 106.933 269.844 105.89C269.844 104.818 270.105 103.85 270.626 102.986C271.162 102.108 271.892 101.415 272.815 100.909C273.738 100.403 274.773 100.149 275.92 100.149C277.052 100.149 278.072 100.403 278.98 100.909C279.889 101.4 280.596 102.078 281.102 102.942C281.623 103.805 281.884 104.759 281.884 105.801C281.884 106.873 281.616 107.849 281.08 108.727C280.559 109.591 279.836 110.276 278.913 110.782C277.99 111.289 276.955 111.542 275.808 111.542ZM275.853 110.604C276.776 110.604 277.61 110.395 278.355 109.978C279.114 109.561 279.71 108.995 280.142 108.281C280.574 107.551 280.79 106.739 280.79 105.846C280.79 104.952 280.574 104.148 280.142 103.433C279.725 102.703 279.137 102.13 278.377 101.713C277.632 101.296 276.798 101.088 275.875 101.088C274.952 101.088 274.11 101.296 273.351 101.713C272.606 102.13 272.018 102.703 271.586 103.433C271.154 104.148 270.938 104.952 270.938 105.846C270.938 106.739 271.147 107.551 271.564 108.281C271.996 108.995 272.584 109.561 273.329 109.978C274.088 110.395 274.93 110.604 275.853 110.604Z" fill="white"/>
<path d="M290.456 111.318H289.295L283.866 100.373H285.05L289.853 110.224H289.942L294.745 100.373H295.884L290.456 111.318Z" fill="white"/>
<path d="M296.403 113.552V112.793H297.051C297.304 112.793 297.476 112.748 297.565 112.659C297.654 112.569 297.699 112.398 297.699 112.145V111.318H297.185V108.973H298.481V112.19C298.481 113.098 298.019 113.552 297.096 113.552H296.403Z" fill="white"/>
<path d="M110.17 157.558V158.563H96.0974V158.295C99.6268 156.359 102.211 154.863 103.849 153.805C105.487 152.733 106.581 151.847 107.132 151.147C107.683 150.447 107.959 149.68 107.959 148.846C107.959 147.729 107.52 146.836 106.641 146.166C105.777 145.496 104.497 145.16 102.799 145.16C101.161 145.16 99.8651 145.503 98.912 146.188C97.9589 146.873 97.4824 147.893 97.4824 149.248C97.4824 149.725 97.5419 150.179 97.6611 150.611C97.7802 151.043 97.9738 151.504 98.2419 151.996L96.7899 151.549C96.4474 150.76 96.2761 149.948 96.2761 149.114C96.2761 148.102 96.5442 147.223 97.0803 146.478C97.6313 145.734 98.3982 145.16 99.3811 144.758C100.379 144.356 101.526 144.155 102.821 144.155C104.906 144.155 106.485 144.58 107.557 145.429C108.629 146.277 109.165 147.402 109.165 148.802C109.165 149.68 108.942 150.477 108.495 151.192C108.063 151.892 107.155 152.733 105.77 153.716C104.4 154.699 102.285 155.98 99.4258 157.558H110.17Z" fill="white"/>
<path d="M124.113 151.482C125.23 151.735 126.079 152.145 126.66 152.711C127.241 153.277 127.531 153.991 127.531 154.855C127.531 156.27 126.891 157.297 125.61 157.938C124.344 158.578 122.624 158.898 120.45 158.898C115.759 158.898 113.414 157.603 113.414 155.012C113.414 153.284 114.553 152.115 116.831 151.504V151.415C114.702 150.834 113.637 149.732 113.637 148.109C113.637 146.769 114.277 145.779 115.558 145.138C116.839 144.483 118.484 144.155 120.495 144.155C122.535 144.155 124.18 144.453 125.431 145.049C126.682 145.644 127.308 146.612 127.308 147.953C127.308 148.742 127.003 149.449 126.392 150.075C125.796 150.685 125.037 151.125 124.113 151.393V151.482ZM114.821 148.109C114.821 149.152 115.357 149.889 116.429 150.321C117.516 150.738 118.864 150.946 120.472 150.946C122.11 150.946 123.458 150.73 124.516 150.298C125.588 149.851 126.124 149.07 126.124 147.953C126.124 146.925 125.58 146.203 124.493 145.786C123.421 145.369 122.073 145.16 120.45 145.16C118.842 145.16 117.501 145.384 116.429 145.831C115.357 146.262 114.821 147.022 114.821 148.109ZM120.495 157.893C122.237 157.893 123.644 157.677 124.717 157.245C125.804 156.813 126.347 156.032 126.347 154.9C126.347 152.934 124.389 151.951 120.472 151.951C118.73 151.951 117.315 152.175 116.228 152.621C115.141 153.053 114.597 153.835 114.597 154.967C114.597 156.084 115.126 156.851 116.183 157.268C117.241 157.685 118.678 157.893 120.495 157.893Z" fill="white"/>
<path d="M131.283 160.797V160.038H131.931C132.184 160.038 132.355 159.993 132.444 159.904C132.534 159.814 132.579 159.643 132.579 159.39V158.563H132.065V156.218H133.36V159.434C133.36 160.343 132.899 160.797 131.975 160.797H131.283Z" fill="white"/>
<path d="M100.922 399.144V398.205H102.084C102.709 398.205 103.141 398.057 103.38 397.759C103.633 397.476 103.759 397.007 103.759 396.351V383.842H104.832V396.441C104.832 397.319 104.601 397.99 104.139 398.451C103.677 398.913 103.007 399.144 102.129 399.144H100.922ZM104.854 381.608H103.737V379.375H104.854V381.608Z" fill="white"/>
<path d="M119.866 383.842H120.938V394.788H120.089V392.353H119.978C119.591 393.202 118.995 393.857 118.191 394.319C117.401 394.78 116.419 395.011 115.242 395.011C113.53 395.011 112.264 394.602 111.445 393.783C110.64 392.949 110.238 391.675 110.238 389.963V383.842H111.311V389.739C111.311 391.303 111.623 392.42 112.249 393.09C112.874 393.745 113.909 394.073 115.354 394.073C116.858 394.073 117.982 393.656 118.727 392.822C119.486 391.973 119.866 390.916 119.866 389.65V383.842Z" fill="white"/>
<path d="M132.328 383.619C134.101 383.619 135.396 384.036 136.215 384.87C137.034 385.689 137.444 386.955 137.444 388.667V394.788H136.372V388.891C136.372 387.312 136.051 386.195 135.411 385.54C134.786 384.885 133.721 384.557 132.217 384.557C130.668 384.557 129.506 384.974 128.732 385.808C127.972 386.642 127.593 387.699 127.593 388.98V394.788H126.521V383.842H127.369V386.277H127.481C127.868 385.428 128.464 384.773 129.268 384.311C130.087 383.85 131.107 383.619 132.328 383.619Z" fill="white"/>
<path d="M143.914 394.788H142.842V383.842H143.914V394.788ZM143.937 381.608H142.82V379.375H143.937V381.608Z" fill="white"/>
<path d="M154.526 395.011C153.394 395.011 152.374 394.765 151.466 394.274C150.557 393.768 149.842 393.083 149.321 392.219C148.815 391.355 148.562 390.402 148.562 389.36C148.562 388.287 148.822 387.319 149.344 386.456C149.88 385.577 150.609 384.885 151.533 384.378C152.456 383.872 153.491 383.619 154.638 383.619C155.769 383.619 156.79 383.872 157.698 384.378C158.606 384.87 159.314 385.547 159.82 386.411C160.341 387.275 160.602 388.228 160.602 389.27C160.602 390.342 160.334 391.318 159.798 392.197C159.276 393.06 158.554 393.745 157.631 394.252C156.708 394.758 155.673 395.011 154.526 395.011ZM154.571 394.073C155.494 394.073 156.328 393.864 157.072 393.447C157.832 393.03 158.428 392.465 158.859 391.75C159.291 391.02 159.507 390.208 159.507 389.315C159.507 388.421 159.291 387.617 158.859 386.902C158.443 386.173 157.854 385.599 157.095 385.182C156.35 384.765 155.516 384.557 154.593 384.557C153.67 384.557 152.828 384.765 152.069 385.182C151.324 385.599 150.736 386.173 150.304 386.902C149.872 387.617 149.656 388.421 149.656 389.315C149.656 390.208 149.865 391.02 150.282 391.75C150.714 392.465 151.302 393.03 152.046 393.447C152.806 393.864 153.647 394.073 154.571 394.073Z" fill="white"/>
<path d="M171.598 383.842V384.758H170.325C168.955 384.758 167.942 385.212 167.287 386.121C166.647 387.014 166.326 388.243 166.326 389.806V394.788H165.254V383.842H166.103V386.634H166.192C166.877 384.773 168.27 383.842 170.37 383.842H171.598Z" fill="white"/>
<path d="M154.712 196.761C154.623 197.818 154.444 198.585 154.176 199.062C153.908 199.538 153.528 199.859 153.037 200.022V200.112C153.528 200.276 153.908 200.596 154.176 201.072C154.444 201.549 154.623 202.308 154.712 203.351L154.98 206.299C155.085 207.491 155.308 208.31 155.65 208.757C156.008 209.203 156.522 209.427 157.192 209.427H158.264V210.387H157.125C156.142 210.387 155.39 210.097 154.869 209.516C154.362 208.95 154.042 207.975 153.908 206.59L153.595 203.351C153.521 202.562 153.417 201.973 153.283 201.586C153.149 201.199 152.948 200.931 152.68 200.782C152.411 200.618 152.024 200.536 151.518 200.536H150.401V199.576H151.518C152.024 199.576 152.411 199.501 152.68 199.352C152.948 199.203 153.149 198.935 153.283 198.548C153.417 198.146 153.521 197.55 153.595 196.761L153.908 193.522C154.042 192.182 154.377 191.214 154.913 190.618C155.449 190.022 156.187 189.725 157.125 189.725H158.264V190.685H157.192C156.522 190.685 156.008 190.909 155.65 191.355C155.308 191.802 155.085 192.621 154.98 193.812L154.712 196.761Z" fill="white"/>
<path d="M95.405 1.90646C94.7795 1.90646 94.3402 2.05538 94.087 2.35322C93.8488 2.63617 93.7296 3.10526 93.7296 3.76051V5.88262H97.9068V6.82082H93.7296V16.8282H92.6574V6.82082H89.5078V5.88262H92.6574V3.67116C92.6574 2.79253 92.8882 2.12239 93.3499 1.66074C93.8115 1.19909 94.4817 0.968262 95.3603 0.968262H97.9068V1.90646H95.405Z" fill="#7C7E85"/>
<path d="M107.818 5.88262V6.79848H106.545C105.175 6.79848 104.162 7.25269 103.507 8.1611C102.867 9.05462 102.546 10.2832 102.546 11.8469V16.8282H101.474V5.88262H102.323V8.67487H102.412C103.097 6.81337 104.49 5.88262 106.59 5.88262H107.818Z" fill="#7C7E85"/>
<path d="M116.103 17.0516C114.971 17.0516 113.951 16.8059 113.043 16.3145C112.134 15.8081 111.419 15.1231 110.898 14.2594C110.392 13.3956 110.139 12.4425 110.139 11.4001C110.139 10.3279 110.399 9.3599 110.92 8.49617C111.457 7.61754 112.186 6.92506 113.11 6.41873C114.033 5.91241 115.068 5.65924 116.215 5.65924C117.346 5.65924 118.366 5.91241 119.275 6.41873C120.183 6.91017 120.891 7.58776 121.397 8.45149C121.918 9.31523 122.179 10.2683 122.179 11.3108C122.179 12.383 121.911 13.3584 121.375 14.237C120.853 15.1008 120.131 15.7858 119.208 16.2921C118.285 16.7985 117.25 17.0516 116.103 17.0516ZM116.148 16.1134C117.071 16.1134 117.905 15.9049 118.649 15.488C119.409 15.071 120.005 14.5051 120.436 13.7903C120.868 13.0606 121.084 12.249 121.084 11.3554C121.084 10.4619 120.868 9.65774 120.436 8.94293C120.019 8.21322 119.431 7.63988 118.672 7.2229C117.927 6.80593 117.093 6.59744 116.17 6.59744C115.247 6.59744 114.405 6.80593 113.646 7.2229C112.901 7.63988 112.313 8.21322 111.881 8.94293C111.449 9.65774 111.233 10.4619 111.233 11.3554C111.233 12.249 111.442 13.0606 111.859 13.7903C112.291 14.5051 112.879 15.071 113.623 15.488C114.383 15.9049 115.224 16.1134 116.148 16.1134Z" fill="#7C7E85"/>
<path d="M132.639 5.65924C134.411 5.65924 135.707 6.07622 136.526 6.91017C137.345 7.72923 137.755 8.99505 137.755 10.7076V16.8282H136.682V10.931C136.682 9.35246 136.362 8.23556 135.722 7.58031C135.096 6.92506 134.032 6.59744 132.527 6.59744C130.979 6.59744 129.817 7.01441 129.043 7.84837C128.283 8.68232 127.903 9.73965 127.903 11.0204V16.8282H126.831V5.88262H127.68V8.31746H127.792C128.179 7.46862 128.775 6.81337 129.579 6.35172C130.398 5.89007 131.418 5.65924 132.639 5.65924Z" fill="#7C7E85"/>
<path d="M150.078 6.82082H145.186V14.036C145.186 14.6912 145.305 15.1678 145.543 15.4656C145.796 15.7486 146.235 15.89 146.861 15.89H149.81V16.8282H146.794C145.915 16.8282 145.245 16.6049 144.783 16.1581C144.337 15.6965 144.113 15.0263 144.113 14.1477V6.82082H140.964V5.88262H143.443C143.726 5.88262 143.905 5.84539 143.979 5.77093C144.069 5.68158 144.113 5.49543 144.113 5.21248V2.7553H145.186V5.88262H150.078V6.82082Z" fill="#7C7E85"/>
<path d="M158.833 16.1134C160.039 16.1134 161.015 15.8603 161.759 15.3539C162.519 14.8327 163.047 14.1477 163.345 13.2988L164.328 13.8126C163.866 14.8402 163.159 15.6369 162.206 16.2028C161.268 16.7687 160.121 17.0516 158.766 17.0516C157.56 17.0516 156.495 16.8059 155.572 16.3145C154.663 15.8081 153.956 15.1231 153.449 14.2594C152.943 13.3956 152.69 12.4425 152.69 11.4001C152.69 10.3279 152.951 9.3599 153.472 8.49617C153.993 7.61754 154.708 6.92506 155.616 6.41873C156.539 5.91241 157.56 5.65924 158.676 5.65924C159.779 5.65924 160.776 5.91241 161.67 6.41873C162.563 6.92506 163.263 7.61009 163.77 8.47383C164.291 9.33757 164.551 10.2907 164.551 11.3331H153.784V11.3554C153.784 12.249 153.993 13.0606 154.41 13.7903C154.827 14.5051 155.415 15.071 156.175 15.488C156.934 15.9049 157.82 16.1134 158.833 16.1134ZM158.632 6.59744C157.44 6.59744 156.398 6.95485 155.505 7.66966C154.626 8.38448 154.082 9.30034 153.874 10.4172H163.367C163.144 9.30034 162.601 8.38448 161.737 7.66966C160.873 6.95485 159.838 6.59744 158.632 6.59744Z" fill="#7C7E85"/>
<path d="M174.95 5.65924C176.723 5.65924 178.018 6.07622 178.837 6.91017C179.656 7.72923 180.066 8.99505 180.066 10.7076V16.8282H178.994V10.931C178.994 9.35246 178.673 8.23556 178.033 7.58031C177.408 6.92506 176.343 6.59744 174.839 6.59744C173.29 6.59744 172.128 7.01441 171.354 7.84837C170.595 8.68232 170.215 9.73965 170.215 11.0204V16.8282H169.143V5.88262H169.991V8.31746H170.103C170.49 7.46862 171.086 6.81337 171.89 6.35172C172.709 5.89007 173.729 5.65924 174.95 5.65924Z" fill="#7C7E85"/>
<path d="M195.271 0.968262H196.343V16.8282H195.494V14.3934H195.405C194.928 15.1976 194.25 15.8454 193.372 16.3368C192.493 16.8134 191.503 17.0516 190.401 17.0516C189.299 17.0516 188.301 16.8059 187.408 16.3145C186.514 15.8081 185.807 15.1231 185.285 14.2594C184.779 13.3956 184.526 12.4425 184.526 11.4001C184.526 10.3279 184.787 9.3599 185.308 8.49617C185.829 7.61754 186.544 6.92506 187.452 6.41873C188.361 5.91241 189.373 5.65924 190.49 5.65924C191.503 5.65924 192.441 5.88262 193.305 6.32938C194.183 6.76125 194.854 7.4165 195.315 8.29513V7.82603C195.285 5.97942 195.271 4.63914 195.271 3.80519V0.968262ZM190.445 16.1134C191.339 16.1134 192.151 15.9124 192.88 15.5103C193.625 15.1082 194.206 14.5721 194.623 13.902C195.055 13.2169 195.271 12.4798 195.271 11.6905V11.0204C195.271 10.2311 195.055 9.50138 194.623 8.83124C194.206 8.14621 193.632 7.60265 192.903 7.20056C192.173 6.79848 191.361 6.59744 190.468 6.59744C189.574 6.59744 188.755 6.80593 188.011 7.2229C187.266 7.63988 186.678 8.21322 186.246 8.94293C185.829 9.65774 185.62 10.4619 185.62 11.3554C185.62 12.249 185.829 13.0606 186.246 13.7903C186.678 14.5051 187.259 15.071 187.988 15.488C188.733 15.9049 189.552 16.1134 190.445 16.1134Z" fill="#7C7E85"/>
<path d="M208.797 2.7553C210.301 2.7553 211.626 3.0457 212.773 3.62648C213.92 4.20727 214.806 5.02633 215.431 6.08366C216.057 7.1261 216.369 8.34725 216.369 9.7471C216.369 11.1469 216.042 12.383 215.386 13.4552C214.746 14.5274 213.845 15.3614 212.683 15.9571C211.522 16.5379 210.197 16.8282 208.707 16.8282H202.363V2.7553H208.797ZM208.752 15.823C210.033 15.823 211.157 15.5848 212.125 15.1082C213.093 14.6168 213.845 13.9169 214.381 13.0084C214.917 12.1 215.185 11.0278 215.185 9.79177C215.185 8.55574 214.917 7.48351 214.381 6.5751C213.845 5.66669 213.093 4.97421 212.125 4.49767C211.157 4.00623 210.033 3.76051 208.752 3.76051H203.48V15.823H208.752Z" fill="#7C7E85"/>
<path d="M226.497 16.1134C227.703 16.1134 228.679 15.8603 229.423 15.3539C230.183 14.8327 230.711 14.1477 231.009 13.2988L231.992 13.8126C231.53 14.8402 230.823 15.6369 229.87 16.2028C228.932 16.7687 227.785 17.0516 226.43 17.0516C225.224 17.0516 224.159 16.8059 223.236 16.3145C222.327 15.8081 221.62 15.1231 221.113 14.2594C220.607 13.3956 220.354 12.4425 220.354 11.4001C220.354 10.3279 220.615 9.3599 221.136 8.49617C221.657 7.61754 222.372 6.92506 223.28 6.41873C224.204 5.91241 225.224 5.65924 226.341 5.65924C227.443 5.65924 228.44 5.91241 229.334 6.41873C230.227 6.92506 230.927 7.61009 231.434 8.47383C231.955 9.33757 232.215 10.2907 232.215 11.3331H221.449V11.3554C221.449 12.249 221.657 13.0606 222.074 13.7903C222.491 14.5051 223.079 15.071 223.839 15.488C224.598 15.9049 225.484 16.1134 226.497 16.1134ZM226.296 6.59744C225.105 6.59744 224.062 6.95485 223.169 7.66966C222.29 8.38448 221.746 9.30034 221.538 10.4172H231.032C230.808 9.30034 230.265 8.38448 229.401 7.66966C228.537 6.95485 227.502 6.59744 226.296 6.59744Z" fill="#7C7E85"/>
<path d="M240.77 16.8282H239.608L234.18 5.88262H235.364L240.167 15.7337H240.256L245.059 5.88262H246.198L240.77 16.8282Z" fill="#7C7E85"/>
<path d="M254.319 16.1134C255.525 16.1134 256.501 15.8603 257.245 15.3539C258.005 14.8327 258.534 14.1477 258.831 13.2988L259.814 13.8126C259.353 14.8402 258.645 15.6369 257.692 16.2028C256.754 16.7687 255.607 17.0516 254.252 17.0516C253.046 17.0516 251.981 16.8059 251.058 16.3145C250.149 15.8081 249.442 15.1231 248.936 14.2594C248.429 13.3956 248.176 12.4425 248.176 11.4001C248.176 10.3279 248.437 9.3599 248.958 8.49617C249.479 7.61754 250.194 6.92506 251.102 6.41873C252.026 5.91241 253.046 5.65924 254.163 5.65924C255.265 5.65924 256.262 5.91241 257.156 6.41873C258.05 6.92506 258.749 7.61009 259.256 8.47383C259.777 9.33757 260.038 10.2907 260.038 11.3331H249.271V11.3554C249.271 12.249 249.479 13.0606 249.896 13.7903C250.313 14.5051 250.901 15.071 251.661 15.488C252.42 15.9049 253.306 16.1134 254.319 16.1134ZM254.118 6.59744C252.927 6.59744 251.884 6.95485 250.991 7.66966C250.112 8.38448 249.569 9.30034 249.36 10.4172H258.854C258.63 9.30034 258.087 8.38448 257.223 7.66966C256.359 6.95485 255.324 6.59744 254.118 6.59744Z" fill="#7C7E85"/>
<path d="M265.701 16.8282H264.629V0.968262H265.701V16.8282Z" fill="#7C7E85"/>
<path d="M276.313 17.0516C275.181 17.0516 274.161 16.8059 273.252 16.3145C272.344 15.8081 271.629 15.1231 271.108 14.2594C270.602 13.3956 270.348 12.4425 270.348 11.4001C270.348 10.3279 270.609 9.3599 271.13 8.49617C271.666 7.61754 272.396 6.92506 273.319 6.41873C274.243 5.91241 275.278 5.65924 276.424 5.65924C277.556 5.65924 278.576 5.91241 279.485 6.41873C280.393 6.91017 281.1 7.58776 281.607 8.45149C282.128 9.31523 282.389 10.2683 282.389 11.3108C282.389 12.383 282.12 13.3584 281.584 14.237C281.063 15.1008 280.341 15.7858 279.418 16.2921C278.494 16.7985 277.459 17.0516 276.313 17.0516ZM276.357 16.1134C277.281 16.1134 278.115 15.9049 278.859 15.488C279.619 15.071 280.214 14.5051 280.646 13.7903C281.078 13.0606 281.294 12.249 281.294 11.3554C281.294 10.4619 281.078 9.65774 280.646 8.94293C280.229 8.21322 279.641 7.63988 278.881 7.2229C278.137 6.80593 277.303 6.59744 276.38 6.59744C275.456 6.59744 274.615 6.80593 273.855 7.2229C273.111 7.63988 272.523 8.21322 272.091 8.94293C271.659 9.65774 271.443 10.4619 271.443 11.3554C271.443 12.249 271.651 13.0606 272.068 13.7903C272.5 14.5051 273.088 15.071 273.833 15.488C274.593 15.9049 275.434 16.1134 276.357 16.1134Z" fill="#7C7E85"/>
<path d="M292.983 5.65924C294.085 5.65924 295.083 5.91241 295.976 6.41873C296.87 6.91017 297.57 7.58776 298.076 8.45149C298.597 9.31523 298.858 10.2683 298.858 11.3108C298.858 12.383 298.597 13.3584 298.076 14.237C297.555 15.1008 296.84 15.7858 295.931 16.2921C295.023 16.7985 294.01 17.0516 292.893 17.0516C291.881 17.0516 290.935 16.8357 290.057 16.4038C289.193 15.9571 288.53 15.2944 288.068 14.4157V14.8848C288.098 16.7314 288.113 18.0717 288.113 18.9057V21.1842H287.041V5.88262H287.89V8.31746H287.979C288.456 7.5133 289.133 6.87294 290.012 6.3964C290.891 5.90496 291.881 5.65924 292.983 5.65924ZM292.916 16.1134C293.809 16.1134 294.628 15.9049 295.373 15.488C296.118 15.071 296.698 14.5051 297.115 13.7903C297.547 13.0606 297.763 12.249 297.763 11.3554C297.763 10.4619 297.547 9.65774 297.115 8.94293C296.698 8.21322 296.118 7.63988 295.373 7.2229C294.643 6.80593 293.832 6.59744 292.938 6.59744C292.045 6.59744 291.226 6.79848 290.481 7.20056C289.751 7.60265 289.171 8.14621 288.739 8.83124C288.322 9.50138 288.113 10.2311 288.113 11.0204V11.6905C288.113 12.4798 288.322 13.2169 288.739 13.902C289.171 14.5721 289.751 15.1082 290.481 15.5103C291.211 15.9124 292.022 16.1134 292.916 16.1134Z" fill="#7C7E85"/>
<path d="M308.698 16.1134C309.904 16.1134 310.88 15.8603 311.624 15.3539C312.384 14.8327 312.913 14.1477 313.21 13.2988L314.193 13.8126C313.732 14.8402 313.024 15.6369 312.071 16.2028C311.133 16.7687 309.986 17.0516 308.631 17.0516C307.425 17.0516 306.36 16.8059 305.437 16.3145C304.528 15.8081 303.821 15.1231 303.315 14.2594C302.808 13.3956 302.555 12.4425 302.555 11.4001C302.555 10.3279 302.816 9.3599 303.337 8.49617C303.858 7.61754 304.573 6.92506 305.481 6.41873C306.405 5.91241 307.425 5.65924 308.542 5.65924C309.644 5.65924 310.642 5.91241 311.535 6.41873C312.429 6.92506 313.129 7.61009 313.635 8.47383C314.156 9.33757 314.417 10.2907 314.417 11.3331H303.65V11.3554C303.65 12.249 303.858 13.0606 304.275 13.7903C304.692 14.5051 305.28 15.071 306.04 15.488C306.799 15.9049 307.685 16.1134 308.698 16.1134ZM308.497 6.59744C307.306 6.59744 306.263 6.95485 305.37 7.66966C304.491 8.38448 303.948 9.30034 303.739 10.4172H313.233C313.009 9.30034 312.466 8.38448 311.602 7.66966C310.738 6.95485 309.703 6.59744 308.497 6.59744Z" fill="#7C7E85"/>
<path d="M325.352 5.88262V6.79848H324.079C322.708 6.79848 321.696 7.25269 321.041 8.1611C320.4 9.05462 320.08 10.2832 320.08 11.8469V16.8282H319.008V5.88262H319.857V8.67487H319.946C320.631 6.81337 322.023 5.88262 324.123 5.88262H325.352Z" fill="#7C7E85"/>
<path d="M357.787 7.7369H344.34V6.77637H357.787V7.7369ZM357.787 12.6513H344.34V11.6907H357.787V12.6513Z" fill="white"/>
<path d="M382.448 7.78159C382.359 8.83892 382.18 9.60586 381.912 10.0824C381.644 10.5589 381.264 10.8791 380.773 11.0429V11.1323C381.264 11.2961 381.644 11.6163 381.912 12.0928C382.18 12.5694 382.359 13.3289 382.448 14.3713L382.716 17.3199C382.82 18.5113 383.044 19.3303 383.386 19.7771C383.744 20.2239 384.258 20.4472 384.928 20.4472H386V21.4078H384.861C383.878 21.4078 383.126 21.1174 382.605 20.5366C382.098 19.9707 381.778 18.9953 381.644 17.6103L381.331 14.3713C381.257 13.582 381.153 12.9938 381.019 12.6066C380.885 12.2194 380.683 11.9513 380.415 11.8024C380.147 11.6386 379.76 11.5567 379.254 11.5567H378.137V10.5962H379.254C379.76 10.5962 380.147 10.5217 380.415 10.3728C380.683 10.2239 380.885 9.95582 381.019 9.56863C381.153 9.16654 381.257 8.57086 381.331 7.78159L381.644 4.54258C381.778 3.2023 382.113 2.23432 382.649 1.63864C383.185 1.04296 383.923 0.745117 384.861 0.745117H386V1.70565H384.928C384.258 1.70565 383.744 1.92903 383.386 2.37579C383.044 2.82255 382.82 3.64161 382.716 4.83297L382.448 7.78159Z" fill="white"/>
</svg>
