<svg width="1200" height="351" viewBox="0 0 1200 351" fill="none" xmlns="http://www.w3.org/2000/svg">
<path d="M98.9975 4.34673L64.7291 230.921V346.653H34.2683V230.921L0 4.34673H31.0047L39.7078 77.6981C41.5209 91.1006 43.1527 106.314 44.6032 123.339C46.4164 140.002 47.6856 153.947 48.4108 165.176H51.1306C51.8558 153.947 52.9437 140.002 54.3942 123.339C56.2073 106.314 58.0205 91.1006 59.8336 77.6981L68.5367 4.34673H98.9975Z" fill="white"/>
<path d="M228.375 346.653H197.914L188.667 201.037H165.278L156.031 346.653H126.114L152.223 4.34673H201.722L228.375 346.653ZM167.453 171.697H186.491L178.332 33.6873H175.613L167.453 171.697Z" fill="white"/>
<path d="M316.03 351C309.503 351 303.882 350.094 299.168 348.283C294.454 346.834 290.102 344.118 286.114 340.133C280.311 334.337 276.141 325.463 273.603 313.509C271.427 301.556 270.339 285.799 270.339 266.238C270.339 251.749 270.521 240.339 270.883 232.008L300.256 228.748V290.146C300.256 301.012 301.525 308.981 304.064 314.053C306.602 319.124 310.772 321.659 316.574 321.659C322.376 321.659 326.547 319.124 329.085 314.053C331.623 308.981 332.893 301.012 332.893 290.146C332.893 267.687 330.354 248.851 325.277 233.638C320.563 218.062 313.129 200.494 302.976 180.933C292.459 159.924 284.482 141.088 279.042 124.426C273.603 107.763 270.883 86.935 270.883 61.9412C270.883 41.2941 275.053 25.8994 283.394 15.757C291.734 5.25232 303.157 0 317.662 0C324.189 0 329.629 0.905572 333.98 2.71672C338.695 4.16563 343.046 6.88235 347.035 10.8669C352.837 16.6625 356.826 25.5371 359.002 37.4907C361.54 49.4443 362.809 65.2012 362.809 84.7616C362.809 99.2508 362.628 110.661 362.265 118.992L332.893 122.252V60.8545C332.893 49.6254 331.623 41.6563 329.085 36.9473C326.909 31.8761 323.102 29.3405 317.662 29.3405C311.497 29.3405 307.146 31.8761 304.608 36.9473C302.432 41.6563 301.344 49.6254 301.344 60.8545C301.344 83.3127 303.701 102.33 308.415 117.906C313.492 133.119 321.107 150.506 331.261 170.067C341.777 191.076 349.755 209.912 355.194 226.574C360.634 243.237 363.353 264.065 363.353 289.059C363.353 309.706 359.183 325.282 350.843 335.786C342.865 345.929 331.261 351 316.03 351Z" fill="white"/>
<path d="M490.602 4.34673V34.2306H463.405V346.653H432.944V34.2306H405.747V4.34673H490.602Z" fill="white"/>
<path d="M625.431 316.769H641.75V346.653H619.992C611.289 346.653 604.943 344.661 600.954 340.676C597.328 336.33 595.333 329.447 594.971 320.029L592.795 197.777C592.795 192.706 591.888 189.084 590.075 186.91C588.262 184.737 585.18 183.65 580.828 183.65H571.037V346.653H540.576V4.34673H579.196C598.053 4.34673 611.651 9.78017 619.992 20.6471C628.332 31.1517 632.503 47.0898 632.503 68.4613V116.276C632.503 127.505 630.145 138.372 625.431 148.876C621.08 159.019 613.646 165.72 603.13 168.98V171.697C609.657 175.681 614.19 181.658 616.728 189.627C619.267 197.234 620.898 207.738 621.624 221.141L625.431 316.769ZM571.037 33.6873V155.396H577.564C586.268 155.396 592.432 152.861 596.058 147.789C600.047 142.356 602.042 132.938 602.042 119.536V69.548C602.042 55.7833 600.047 46.3653 596.058 41.2941C592.432 36.2229 586.268 33.6873 577.564 33.6873H571.037Z" fill="white"/>
<path d="M721.471 184.193V316.769H759.547V346.653H691.01V4.34673H759.003V34.2306H721.471V154.853H746.492V184.193H721.471Z" fill="white"/>
<path d="M875.844 169.523C884.91 172.421 892.163 178.579 897.602 187.997C903.041 197.053 905.761 208.282 905.761 221.684V280.365C905.761 302.099 901.41 318.58 892.707 329.81C884.004 341.039 869.861 346.653 850.279 346.653H813.291V4.34673H851.911C870.768 4.34673 884.366 9.78017 892.707 20.6471C901.047 31.1517 905.217 47.0898 905.217 68.4613V114.102C905.217 142.356 895.426 159.924 875.844 166.806V169.523ZM843.752 33.6873V155.396H850.279C858.982 155.396 865.147 152.861 868.773 147.789C872.762 142.356 874.757 132.938 874.757 119.536V69.548C874.757 55.7833 872.762 46.3653 868.773 41.2941C865.147 36.2229 858.982 33.6873 850.279 33.6873H843.752ZM875.3 219.511C875.3 205.746 873.306 196.328 869.317 191.257C865.691 186.186 859.526 183.65 850.823 183.65H843.752V317.313H850.823C859.526 317.313 865.691 314.777 869.317 309.706C873.306 304.272 875.3 294.854 875.3 281.452V219.511Z" fill="white"/>
<path d="M1008.3 351C991.622 351 979.836 344.842 972.947 332.526C966.057 319.848 962.612 299.02 962.612 270.042V80.9582C962.612 51.9799 966.419 31.3328 974.034 19.017C981.65 6.339 993.798 0 1010.48 0C1027.16 0 1038.94 6.339 1045.83 19.017C1052.72 31.3328 1056.17 51.9799 1056.17 80.9582V270.042C1056.17 299.02 1052.36 319.848 1044.75 332.526C1037.13 344.842 1024.98 351 1008.3 351ZM1009.39 321.659C1015.19 321.659 1019.36 319.124 1021.9 314.053C1024.44 308.981 1025.71 301.012 1025.71 290.146V60.8545C1025.71 49.9876 1024.44 42.0186 1021.9 36.9473C1019.36 31.8761 1015.19 29.3405 1009.39 29.3405C1003.59 29.3405 999.418 31.8761 996.88 36.9473C994.342 42.0186 993.072 49.9876 993.072 60.8545V290.146C993.072 301.012 994.342 308.981 996.88 314.053C999.418 319.124 1003.59 321.659 1009.39 321.659Z" fill="white"/>
<path d="M1126.57 346.653L1099.91 4.34673H1130.38L1142.34 196.69C1145.61 246.316 1147.78 284.531 1148.87 311.336H1151.59C1152.68 284.531 1154.85 246.316 1158.12 196.69L1170.08 4.34673H1200L1173.89 346.653H1126.57Z" fill="white"/>
</svg>
